<svg xmlns="http://www.w3.org/2000/svg" viewBox="0 0 447.2 137.09"><defs><style>.cls-1{fill:#ed1c24;}</style></defs><title>ELdrago 3</title><g id="Слой_2" data-name="Слой 2"><g id="Слой_1-2" data-name="Слой 1"><path class="cls-1" d="M0,4.36H50.65V16.12H10.84V46.69H49V58.45H10.84V95.87H51.62v11.75H0Z"/><path class="cls-1" d="M69.43,4.36H80.27V95.87h39v11.75H69.43Z"/><path class="cls-1" d="M169.77,41.92V0h9.87V107.62h-9.87V96q-3.12,6.93-7.86,10.27a19.24,19.24,0,0,1-11.4,3.36q-10.9,0-17.74-11.21T125.93,69q0-18.25,6.84-29.47t17.74-11.2a19.31,19.31,0,0,1,11.4,3.35Q166.65,35,169.77,41.92ZM136.13,69q0,14,4.48,22t12.31,8q7.83,0,12.34-8t4.51-22q0-14-4.51-22t-12.34-8q-7.83,0-12.31,8T136.13,69Z"/><path class="cls-1" d="M234.8,42.05a11.55,11.55,0,0,0-3.62-1.83,15.09,15.09,0,0,0-4.32-.59,14.35,14.35,0,0,0-12.85,7q-4.48,7-4.48,20.16v40.81H199.6V30.16h9.93v12a24,24,0,0,1,8.1-10.48,21,21,0,0,1,12.13-3.42,17.1,17.1,0,0,1,2.25.17c.82.12,1.73.29,2.74.52Z"/><path class="cls-1" d="M292.16,63.43v44.19h-9.87V95.87q-3.39,7-8.43,10.4a21.76,21.76,0,0,1-12.34,3.36q-9.22,0-14.67-6.68T241.4,85.08q0-13.08,6.79-19.72t20.25-6.64h13.85V57.48q0-8.79-4.48-13.59t-12.59-4.81a32.18,32.18,0,0,0-10,1.59,35,35,0,0,0-9.39,4.77V33.68a56.1,56.1,0,0,1,10.52-4,38.6,38.6,0,0,1,9.92-1.35q13,0,19.48,8.71T292.16,63.43Zm-19.69,5.25q-12,0-16.58,3.53t-4.62,12q0,6.77,3.46,10.75a11.86,11.86,0,0,0,9.42,4q8.21,0,13.17-7.51t5-20V68.68Z"/><path class="cls-1" d="M361.91,98q0,19.78-6.81,29.43t-20.88,9.65a46.59,46.59,0,0,1-9.81-1,41.21,41.21,0,0,1-9-3.08V120.63a34.64,34.64,0,0,0,8.59,4.49,26.44,26.44,0,0,0,8.64,1.46q9.7,0,14.54-6.54T352,100.29V94a24.22,24.22,0,0,1-7.84,10.23,19.21,19.21,0,0,1-11.42,3.39q-11.05,0-17.82-10.86T308.2,68q0-18,6.76-28.84t17.82-10.86a19.21,19.21,0,0,1,11.42,3.39A24.26,24.26,0,0,1,352,41.92V30.16h9.87ZM352,68q0-13.83-4.43-21.44t-12.42-7.61q-7.94,0-12.37,7.61T318.4,68q0,13.77,4.42,21.37T335.19,97q8,0,12.42-7.61T352,68Z"/><path class="cls-1" d="M405.53,28.29c-8.62,0-26.62-7.45-31.51-.25S378,56.23,378,69s2.45,22.63,7.33,29.84,11.63,10.83,20.25,10.83S420.86,106,425.76,98.8s7.35-17.16,7.35-29.84S440.64,52.56,445,45C457.29,24,414.12,28.29,405.53,28.29ZM418,90.82q-4.62,8-12.51,8t-12.58-8q-4.59-8-4.59-21.89T393,47.07q4.61-8,12.55-8T418,47.14q4.6,8.05,4.61,21.82T418,90.82ZM430.2,43.93c-6.45,0-6.44-10,0-10S436.63,43.93,430.2,43.93Z"/></g></g></svg>