<svg xmlns="http://www.w3.org/2000/svg" viewBox="0 0 392.5 140.55"><defs><style>.cls-1{fill:#ed1c24;}</style></defs><title>ELdrago 5</title><g id="Слой_2" data-name="Слой 2"><g id="Слой_1-2" data-name="Слой 1"><path class="cls-1" d="M0,103.47a26.17,26.17,0,0,1,.54-5.12Q2.36,88.95,4.8,79.92T9.23,62q2-8.92,3.3-15t2.33-10.51q1-4.39,1.88-7.58t1.88-6.29c.43-1.25.9-2.54,1.42-3.88A33.44,33.44,0,0,1,21.73,15a13.28,13.28,0,0,1,1.91-2.76,2.82,2.82,0,0,1,2.06-1.07,5.2,5.2,0,0,1,3.35.93,4.34,4.34,0,0,1,1.43,1.69L31,16.6a14.81,14.81,0,0,0,2.09-.38l2.6-.66c.88-.23,1.69-.46,2.45-.69a14.27,14.27,0,0,0,1.71-.62Q43.35,13,46.36,12.1c2-.59,3.91-1.09,5.71-1.48s3.54-.68,5.18-.87a45.93,45.93,0,0,1,5-.27,19.09,19.09,0,0,1,4,.34,7.37,7.37,0,0,1,2.47.94A3.25,3.25,0,0,1,70,12.14a4.18,4.18,0,0,1,.34,1.69,5,5,0,0,1-1.5,3.53,7.29,7.29,0,0,1-2.09,1.45,9.75,9.75,0,0,1-3.22.83c-.32.1-1.07.27-2.23.52L57.52,21l-3.86.87c-1.22.27-2.06.48-2.53.62h.06a15.91,15.91,0,0,0-1.53.52c-.81.3-1.78.64-2.93,1s-2.38.84-3.73,1.34-2.66,1-4,1.49l-3.62,1.38-2.68,1.08a13.22,13.22,0,0,0-5.12,4.39,23.4,23.4,0,0,0-2.93,6.12c-.14.41-.36,1.12-.64,2.11s-.6,2.12-.94,3.39-.71,2.62-1.1,4-.77,2.8-1.13,4.09-.67,2.46-.94,3.52-.45,1.85-.56,2.36a8.24,8.24,0,0,0-.21,1.24c0,.37-.06.65-.06.83s.06.41.16.41a13.05,13.05,0,0,0,3.36-.93c1.69-.62,3.68-1.39,5.95-2.32l7.3-3q3.89-1.59,7.46-3t6.36-2.32a14.8,14.8,0,0,1,4-.94,3.15,3.15,0,0,1,2.52.8,2.74,2.74,0,0,1,.65,1.76,7.19,7.19,0,0,1-1.37,4.36,13.74,13.74,0,0,1-3.41,3.25,21.42,21.42,0,0,1-2.39,1.21c-1.16.53-2.41,1.07-3.75,1.63L42.12,64l-2.63,1.11q-5.25,2.63-8.56,4.32t-5.34,2.77L22.46,73.8q-1.11.56-2,.93c-.63.26-1.32.5-2.07.73l-3.11,1c-.32,1-.7,2.43-1.13,4.39s-.84,4-1.23,6.09-.73,4-1,5.84a31.89,31.89,0,0,0-.4,3.74,4.63,4.63,0,0,0,.27,1.83,1.68,1.68,0,0,0,.64.8,1.66,1.66,0,0,0,.76.2h.59a24.4,24.4,0,0,0,6.19-1A46.5,46.5,0,0,0,27.1,95.8,35,35,0,0,0,33,92.48q2.52-1.8,4.75-3.36a36.16,36.16,0,0,1,4.34-2.63,11,11,0,0,1,4.64-1.14,7.2,7.2,0,0,1,1.27.14,4.26,4.26,0,0,1,1.36.52,3.14,3.14,0,0,1,1,1,2.39,2.39,0,0,1,.3,1.59,8.59,8.59,0,0,1-1.56,3.94,20.8,20.8,0,0,1-3.38,3.74,41.22,41.22,0,0,1-4.56,3.46c-1.68,1.11-3.4,2.15-5.15,3.15s-3.47,1.89-5.15,2.69-3.19,1.51-4.51,2.11a49.52,49.52,0,0,1-9.61,3.25,38.47,38.47,0,0,1-8.37,1,9,9,0,0,1-6.25-2Q0,108,0,103.47Z"/><path class="cls-1" d="M72.17,72.9q2.42-9.54,4.61-18.33t3.89-16.25q1.69-7.47,2.68-13.21A70,70,0,0,0,84.46,16a11.1,11.1,0,0,1,2.28-5.19,4.85,4.85,0,0,1,3.78-1.94,3.36,3.36,0,0,1,2.2.76,5.47,5.47,0,0,1,1.47,2,11.34,11.34,0,0,1,.84,2.8,19.5,19.5,0,0,1,.26,3.15,20,20,0,0,1-.1,2.14c-.08.65-.16,1.27-.27,1.87q-1.24,6.36-3,13.14T88.45,48.45q-1.8,7-3.57,13.94T81.72,76.08l-1,4.71q-.75,3.6-1.29,6.84a34.68,34.68,0,0,0-.53,5.26,4.07,4.07,0,0,0,.32,1.76,1.24,1.24,0,0,0,1.23.66,17.54,17.54,0,0,0,5.16-.93c2-.62,4-1.39,6.11-2.28s4.21-1.89,6.31-3,4-2.11,5.77-3.08l2.38-1.31,2.47-1.35,3.94-2.11c1.65-.87,3.92-2.1,6.82-3.67l1.31-.58a2.75,2.75,0,0,1,1-.25,2.6,2.6,0,0,1,1.48.42,2.87,2.87,0,0,1,1,1.11,5.94,5.94,0,0,1,.51,1.59,10,10,0,0,1,.16,1.8,16,16,0,0,1-.19,2.66,17.54,17.54,0,0,1-.4,1.9,9.57,9.57,0,0,1-1.66,2.39,14.25,14.25,0,0,1-2.15,1.86,17.19,17.19,0,0,1-2.2,1.35,17.94,17.94,0,0,1-1.77.83l-2.28,1.11-3.08,1.52c-1.11.56-2.26,1.12-3.44,1.7l-3.32,1.62L101.65,100c-.8.39-1.37.66-1.69.8-1.54.73-3.24,1.56-5.12,2.49s-3.75,1.79-5.61,2.62S85.61,107.43,84,108a13.19,13.19,0,0,1-4.16.87,9.71,9.71,0,0,1-3.2-.42,7,7,0,0,1-2.06-1.14,15,15,0,0,1-1.85-1.76,21.94,21.94,0,0,0-2.5-2.28,6,6,0,0,1-2-3,13.93,13.93,0,0,1-.59-4.15c0-.73,0-1.59.13-2.56s.21-2,.35-3,.3-2.1.48-3.11.38-1.92.59-2.7Z"/><path class="cls-1" d="M130.87,84.87a65.66,65.66,0,0,1,1.85-7.47,56.46,56.46,0,0,1,2.87-7.4,51.33,51.33,0,0,1,4.08-7.16,45.6,45.6,0,0,1,5.52-6.68A56.19,56.19,0,0,1,149.73,52a36.39,36.39,0,0,1,4.85-3.42,27.09,27.09,0,0,1,5-2.32,14.84,14.84,0,0,1,4.91-.87,11.82,11.82,0,0,1,3.13.38,12.17,12.17,0,0,1,2.61,1.08q.53-2.43,2.87-13t5.71-29.46a8.48,8.48,0,0,1,1.67-3.11A3.28,3.28,0,0,1,183,0a9.05,9.05,0,0,1,2.09.24,4.17,4.17,0,0,1,1.83,1,5.2,5.2,0,0,1,1.29,2,9.21,9.21,0,0,1,.48,3.25L177.92,62q-.48,2.36-.91,6.33c-.28,2.65-.55,5.46-.8,8.41s-.45,5.86-.59,8.75-.22,5.36-.22,7.43a42.12,42.12,0,0,1-.7,7.68,24.81,24.81,0,0,1-.67,2.8,5.38,5.38,0,0,1-.94,1.87,3.19,3.19,0,0,1-1.47,1,6.71,6.71,0,0,1-2.23.32,5.57,5.57,0,0,1-2.41-.42,3,3,0,0,1-1.29-1.14,3.76,3.76,0,0,1-.51-1.66c-.05-.62-.09-1.29-.11-2s0-1.45-.1-2.21a8.3,8.3,0,0,0-.46-2.18c-.43.37-1,.86-1.77,1.45l-2.28,1.84L158.29,102c-.68.53-1.19.91-1.51,1.14-.82.6-1.75,1.23-2.79,1.9a30.41,30.41,0,0,1-3.35,1.87,22.89,22.89,0,0,1-3.76,1.41,14.37,14.37,0,0,1-3.94.56,11.19,11.19,0,0,1-4.69-1,11.48,11.48,0,0,1-4.08-3.18,16.05,16.05,0,0,1-2.87-5.43,24.74,24.74,0,0,1-1.08-7.71c0-1.06.05-2.11.14-3.15A33.85,33.85,0,0,1,130.87,84.87Zm9.28-.56a19.66,19.66,0,0,0-.43,4A25,25,0,0,0,140,92.1a9.24,9.24,0,0,0,1,3.07,5.86,5.86,0,0,0,1.93,2.11,5.62,5.62,0,0,0,3.14.8,6.19,6.19,0,0,0,2.31-.49,15.37,15.37,0,0,0,2.44-1.21,22.64,22.64,0,0,0,2.25-1.52c.7-.53,1.3-1,1.8-1.42q2-1.72,3.78-3.38a25.48,25.48,0,0,0,3.14-3.6,23.07,23.07,0,0,0,2.44-4.32,27.85,27.85,0,0,0,1.7-5.5c.35-1.85.67-3.53.93-5s.51-3,.73-4.46.41-2.94.59-4.46.36-3.21.53-5.05a3.32,3.32,0,0,0-.72-.8,2.11,2.11,0,0,0-1.37-.38,14,14,0,0,0-4.72.93A27.09,27.09,0,0,0,156.59,60a35.17,35.17,0,0,0-5.31,4.22,41.45,41.45,0,0,0-4.83,5.56,39.35,39.35,0,0,0-3.89,6.75A33.51,33.51,0,0,0,140.15,84.31Z"/><path class="cls-1" d="M192.52,101.47q.69-4.84,1.61-10.65T196,79.06q1-6,1.87-11.69t1.56-10.52c0-.46-.05-.86-.05-1.21V54.5c0-1.43.07-2.85.21-4.29a37.4,37.4,0,0,1,.59-3.94,9.57,9.57,0,0,1,1.32-3.56,2.77,2.77,0,0,1,2.33-.93,3.7,3.7,0,0,1,2.49.79,5.39,5.39,0,0,1,1.48,2.11,10.64,10.64,0,0,1,.7,3c.11,1.13.16,2.29.16,3.49,0,.65,0,1.36,0,2.15s-.06,1.4-.06,1.86c1-1.33,2.07-2.7,3.19-4.11a31.09,31.09,0,0,1,3.6-3.8,20.12,20.12,0,0,1,4-2.81,9.56,9.56,0,0,1,4.43-1.1,7.77,7.77,0,0,1,1.8.21,13.16,13.16,0,0,1,1.8.55,15.53,15.53,0,0,1,2.22.93,9.4,9.4,0,0,1,2.23,1.63,14.58,14.58,0,0,1,3,4.32A12.47,12.47,0,0,1,236,56.3a8.59,8.59,0,0,1-.32,2.25,9.27,9.27,0,0,1-.88,2.21,6.2,6.2,0,0,1-1.32,1.66,2.45,2.45,0,0,1-1.66.66,5.74,5.74,0,0,1-2.23-.59,6.34,6.34,0,0,1-2.17-1.55,6,6,0,0,1-.78-1.18c-.27-.51-.52-1-.75-1.52s-.45-1-.64-1.42a4.48,4.48,0,0,0-.46-.86,4.77,4.77,0,0,0-.59-.11l-.59,0a8.73,8.73,0,0,0-5.21,1.8A25.64,25.64,0,0,0,213.82,62a46.78,46.78,0,0,0-3.94,5.53c-1.2,2-2.25,3.73-3.14,5.29q-1.08,5.61-2.39,11.93T201.75,98v1.73c0,1.38,0,2.79-.11,4.22a15,15,0,0,1-.64,3.8,5.37,5.37,0,0,1-1.69,1.77,4.58,4.58,0,0,1-2.55.72,3.66,3.66,0,0,1-3.38-1.9,8.62,8.62,0,0,1-1.13-4.46A11.36,11.36,0,0,1,192.52,101.47Z"/><path class="cls-1" d="M264.31,105.62a35.47,35.47,0,0,1,.38-4.81,53.84,53.84,0,0,0,.37-7c-1.18,1.11-2.48,2.42-3.92,3.94s-2.91,3-4.45,4.36a32.79,32.79,0,0,1-4.59,3.49,8.13,8.13,0,0,1-4.26,1.42,7.83,7.83,0,0,1-5.53-2.28,19.86,19.86,0,0,1-4.1-5.81A17,17,0,0,1,237,92.2a28.38,28.38,0,0,1,.24-3.6q.24-1.86.72-4.29a70.06,70.06,0,0,1,7-20.23,57.15,57.15,0,0,1,12.32-15.87,13.71,13.71,0,0,1,5.69-3.29,22.82,22.82,0,0,1,5.63-.72,22.11,22.11,0,0,1,2.76.2c1,.14,1.94.28,2.77.42q1.23-.34,2-.48a8.6,8.6,0,0,1,1.63-.14,5.83,5.83,0,0,1,2.69.55,4.67,4.67,0,0,1,1.71,1.49,6.29,6.29,0,0,1,.94,2.14,10.5,10.5,0,0,1,.3,2.53,13.58,13.58,0,0,1-.43,3.42c-.29,1.08-.57,2.18-.86,3.29L275,94.07c-.15,2-.27,3.8-.38,5.46a30.55,30.55,0,0,1-.64,4.64c-.11.41-.24.93-.4,1.55a6.47,6.47,0,0,1-.78,1.8,5.78,5.78,0,0,1-1.34,1.49,3.38,3.38,0,0,1-2.1.62,10,10,0,0,1-2.65-.28,3.56,3.56,0,0,1-1.53-.79,2.44,2.44,0,0,1-.7-1.25A7.7,7.7,0,0,1,264.31,105.62ZM246.5,84.73c-.15.65-.3,1.57-.46,2.77a27.06,27.06,0,0,0-.24,3.59,12,12,0,0,0,.43,3.36,1.81,1.81,0,0,0,1.88,1.48,7.51,7.51,0,0,0,4.21-1.28A20.63,20.63,0,0,0,256,91.58q2.31-2.43,4.7-5.43t4.51-6.33A61.38,61.38,0,0,0,269,73a32.82,32.82,0,0,0,2.39-7,44.65,44.65,0,0,0,.72-4.63,41.88,41.88,0,0,0,.3-4.7A5.17,5.17,0,0,0,272,55a1.23,1.23,0,0,0-1.24-.86,11.9,11.9,0,0,0-5.28,1.31,23.07,23.07,0,0,0-5.13,3.53,35.24,35.24,0,0,0-4.69,5.22,50.62,50.62,0,0,0-4,6.43,53.48,53.48,0,0,0-3.14,7.06A48.44,48.44,0,0,0,246.5,84.73Z"/><path class="cls-1" d="M294.52,140.55a2.29,2.29,0,0,1-1-.25,2.8,2.8,0,0,1-1-.76,4.68,4.68,0,0,1-.78-1.31,5.17,5.17,0,0,1-.32-1.9,8.09,8.09,0,0,1,.16-1.59,28.55,28.55,0,0,1,.91-3.7,6.43,6.43,0,0,1,1.4-2.39A7.13,7.13,0,0,1,296.4,127a34.63,34.63,0,0,1,4.07-1.34c1.08-.28,2.09-.59,3-.94a7.68,7.68,0,0,0,2.33-1.28,39.78,39.78,0,0,0,4.64-6.43,45.76,45.76,0,0,0,3.22-6.88,62.68,62.68,0,0,0,2.2-7.3c.59-2.49,1.15-5,1.69-7.61.22-.87.4-1.78.56-2.73s.37-2,.62-3.22q-2,2.29-4.24,4.57A42.41,42.41,0,0,1,310,97.94a25.3,25.3,0,0,1-4.69,2.94,10.93,10.93,0,0,1-4.75,1.14,6,6,0,0,1-3.14-1.11,14.94,14.94,0,0,1-3.3-2.9,17,17,0,0,1-2.63-4.19,12.16,12.16,0,0,1-1.07-5,22.53,22.53,0,0,1,.32-3.6c.22-1.29.41-2.44.59-3.46a49.74,49.74,0,0,1,2.52-8.85,61.14,61.14,0,0,1,3.87-8.16,66.79,66.79,0,0,1,4.83-7.37A71.52,71.52,0,0,1,308,50.91a24.17,24.17,0,0,1,7.08-5.4,17.45,17.45,0,0,1,7.51-1.66,23.56,23.56,0,0,1,3.2.21,9.85,9.85,0,0,1,2.89.86,8.39,8.39,0,0,1,2.55,1.94,12.82,12.82,0,0,1,2.15,3.35,6,6,0,0,1,.35,1.15,5.68,5.68,0,0,1,.13,1.14q0,.55-.24,2.73T333,60.62q-.4,3.23-1,7.2t-1.15,8q-.6,4.05-1.18,8c-.4,2.6-.77,4.94-1.13,7q-.91,5.46-2.28,11.27A107.24,107.24,0,0,1,323,113.43a75.33,75.33,0,0,1-4.58,10.45,40.58,40.58,0,0,1-6.12,8.61,27.65,27.65,0,0,1-7.89,5.88A22,22,0,0,1,294.52,140.55Zm5.31-57.27c-.11.55-.21,1.12-.29,1.69a11,11,0,0,0-.14,1.7,7.12,7.12,0,0,0,.43,2.62,1.57,1.57,0,0,0,1.56,1.11,7.75,7.75,0,0,0,4.15-1.62,30.31,30.31,0,0,0,4.78-4.12,54.27,54.27,0,0,0,4.51-5.39,34.34,34.34,0,0,0,3.35-5.54c.36-.74.83-1.75,1.42-3s1.18-2.69,1.77-4.19,1.12-3,1.59-4.49a19.73,19.73,0,0,0,.85-4,6.2,6.2,0,0,0-.37-2.18,13.82,13.82,0,0,1-.64-2.8h-.49a5.68,5.68,0,0,0-2.95,1.07,25.67,25.67,0,0,0-3.51,2.8,50.44,50.44,0,0,0-3.73,3.91c-1.25,1.45-2.44,2.93-3.54,4.43s-2.12,2.95-3,4.36a33.82,33.82,0,0,0-2.12,3.7c-.75,1.52-1.43,3.05-2.06,4.6A28.34,28.34,0,0,0,299.83,83.28Z"/><path class="cls-1" d="M344,82.1a60.81,60.81,0,0,1,2.5-9A62.64,62.64,0,0,1,351,63.56a65.9,65.9,0,0,1,6.58-9.47,59.78,59.78,0,0,1,8.88-8.65,12.47,12.47,0,0,1,2.47-1.35,10.62,10.62,0,0,1,3.43-.86A6.59,6.59,0,0,1,378,40.32,9.86,9.86,0,0,1,385,43.06a20.7,20.7,0,0,1,4.75,7.43c.39,1,.76,2,1.1,3a26.35,26.35,0,0,1,.86,3.07c.23,1.09.42,2.25.56,3.5a37.82,37.82,0,0,1,.22,4.22,48,48,0,0,1-1.35,11.13,58.93,58.93,0,0,1-3.81,11.07,63,63,0,0,1-6,10.34,55.69,55.69,0,0,1-7.81,8.89,21.67,21.67,0,0,1-6.41,4.18,20,20,0,0,1-7.86,1.49,16.69,16.69,0,0,1-7.16-1.42,13.28,13.28,0,0,1-5-4,17.76,17.76,0,0,1-3-6.29,31.24,31.24,0,0,1-1-8.16A49.45,49.45,0,0,1,344,82.1ZM353,83a30.29,30.29,0,0,0-.46,3c-.08.94-.13,1.86-.13,2.73a18.46,18.46,0,0,0,.46,4.25,9.18,9.18,0,0,0,1.47,3.39,7.16,7.16,0,0,0,2.55,2.22,8,8,0,0,0,3.73.79,12.28,12.28,0,0,0,7.59-2.66,28.16,28.16,0,0,0,6.25-6.67A44.73,44.73,0,0,0,379,81.44,46.93,46.93,0,0,0,381.6,73c.32-1.61.6-3.13.83-4.56a24,24,0,0,0,.35-4,10.69,10.69,0,0,0-.51-3.35c-.34-1-.77-2.2-1.31-3.49-.32-.79-.64-1.61-1-2.46s-.61-1.69-.86-2.52a11.05,11.05,0,0,1-.91,1.69,4.45,4.45,0,0,1-1.45,1.31,11,11,0,0,1-2.63,1.08,29.52,29.52,0,0,1-4.34.83,13.82,13.82,0,0,0-3.6,2.35,30.41,30.41,0,0,0-3.56,3.73,47,47,0,0,0-3.33,4.64,50.06,50.06,0,0,0-2.85,5.08c-.84,1.73-1.57,3.42-2.2,5.09A26.92,26.92,0,0,0,353,83Z"/></g></g></svg>