<svg xmlns="http://www.w3.org/2000/svg" viewBox="0 0 405.54 261.89"><defs><style>.cls-1{fill:#4b4b4b;}</style></defs><title>ELdrago 1</title><g id="Слой_2" data-name="Слой 2"><g id="Слой_1-2" data-name="Слой 1"><path class="cls-1" d="M52.31,25.38A4.76,4.76,0,0,1,50.65,25a50.85,50.85,0,0,0-17.49-3.32,49.43,49.43,0,0,0-9.6,1,79.83,79.83,0,0,0-11.22,3.18,71.38,71.38,0,0,1,.48,7.19q0,9.62-.91,26.43l23.5-2.91q10.37-1.38,12.72-1.38a5,5,0,0,1,4,1.93,7.89,7.89,0,0,1,1.61,5.19q0,6.3-4.94,7.06L36,70.89l-24.79,2.9c-.14,3.28-.26,6.38-.34,9.31s-.14,5.66-.14,8.19q0,15.3,1.72,18c.86,1.29,3.66,1.93,8.42,1.93q3.33,0,10-.24c4.45-.16,7.81-.24,10.06-.24a16.63,16.63,0,0,0,3.17-.45,16.36,16.36,0,0,1,3.11-.45q5.69,0,5.69,7.19c0,3.88-1.53,6.2-4.57,7q-5,1.3-21.83,1.31-16.64,0-21.36-5.67Q0,113.5,0,91.29q0-4.42.16-9.68T.59,70.27A9.74,9.74,0,0,1,0,66.88a8.64,8.64,0,0,1,1-4.22q1.07-20,1.07-29.54,0-2.55-.53-7.5T1,18.12Q1,9.89,6.39,9.88a4.8,4.8,0,0,1,3.86,2A91.51,91.51,0,0,1,22.4,8.57,56.59,56.59,0,0,1,33.16,7.46q13,0,20.82,4,3.59,1.86,3.59,6.64A8.81,8.81,0,0,1,56.18,23,4.57,4.57,0,0,1,52.31,25.38Z"/><path class="cls-1" d="M116.11,115.64q-6.06,3.67-19,6.57-12,2.7-19.53,2.7-5.41,0-7.78-2.15-3.21-2.9-3.22-10.65l1.08-22.89Q69,57.54,69,18.94a8.24,8.24,0,0,1,1.53-5,4.55,4.55,0,0,1,3.78-2.08,4.6,4.6,0,0,1,3.84,2.08,8.24,8.24,0,0,1,1.53,5q0,39.09-1.45,71.11l-.7,10.51q-.42,5.75-.32,10.17,14,.21,35.41-8.51a4.9,4.9,0,0,1,1.72-.34,4.55,4.55,0,0,1,3.87,2.35,9.11,9.11,0,0,1,1.34,4.91A7,7,0,0,1,116.11,115.64Z"/><path class="cls-1" d="M175.78,8.22c-2.79,0-4.42,2.06-4.88,6.16q-1,10.1-1.78,39.22l-5-4.77q-3.37-2.49-9.6-2.49-12.14,0-19.72,11.13t-7.59,29.6q0,15.3,7.51,25,7.29,9.56,18.4,9.55a20.88,20.88,0,0,0,8.67-1.87,29,29,0,0,0,8-5.53c1,4.15,2.66,6.22,4.88,6.22a4.45,4.45,0,0,0,3.49-1.8,6.86,6.86,0,0,0,1.5-4.56,15.33,15.33,0,0,0-.11-1.59q-1.67-11.76-1.66-34.79,0-10.17.64-20.34c.79-12,6.28-21.89,11.94-29a5,5,0,0,1-2.49-4c-.86-10.63,7.23-18.76,17.82-17.08a3.92,3.92,0,0,1,.49.13A20.58,20.58,0,0,1,209,7.12a4.39,4.39,0,0,1,3.79,1.65C234.6-10.64,178.7,8.22,175.78,8.22Zm-7.57,90.34a14.61,14.61,0,0,1-1.55,2.14,43.65,43.65,0,0,1-6,5.74,13.08,13.08,0,0,1-7.62,2.15q-6.6,0-11.51-6.44a24.58,24.58,0,0,1-4.91-15.35q0-13.83,4.51-20.72t13.52-6.88a12.26,12.26,0,0,1,8.1,2.8,19.07,19.07,0,0,1,5.42,8.41l-.11,8.16,0,8ZM183,18.66c-6.45,0-6.43-10,0-10S189.43,18.66,183,18.66Z"/><path class="cls-1" d="M235.39,67.36Q235,76,230,76q-4.61,0-4.61-6.85c0-.88,0-2.49-.16-4.84l-.16-5.81q-8.47,1.31-13.58,6.15-4.77,4.5-7.94,13.56l.11,37.9q0,7-5.31,7-4.73,0-4.72-7V67.57c0-1.52,0-3.81.13-6.85s.13-5.32.13-6.85q0-7,4.73-7,5.25,0,5.31,11.48,10.31-12.79,22.85-12.8a6.93,6.93,0,0,1,6.5,4.22q2.14,4.23,2.14,12.73C235.44,64.92,235.42,66.53,235.39,67.36Z"/><path class="cls-1" d="M288.35,123c-.68,0-1.92-1-3.7-3a30,30,0,0,1-3.6-5,62.57,62.57,0,0,1-9.07,5.43,16.22,16.22,0,0,1-6.54,1.83q-12.56,0-18.3-9.13-5.41-8.58-5.42-26.28,0-16.74,8.94-28.64T272,46.27a22.49,22.49,0,0,1,10.47,3.11q7.29,3.87,7.29,9.34A5.42,5.42,0,0,1,288.67,62a64.48,64.48,0,0,0-.83,8.64q-.3,6-.35,15.43a72.25,72.25,0,0,0,.91,13.55q.54,3,3.38,12.18c.25.83.66,2,1.24,3.66l.32,1.18a6.88,6.88,0,0,1-1.5,4.56A4.47,4.47,0,0,1,288.35,123ZM277.19,75q0-3,.29-6.47c.2-2.33.49-4.8.89-7.43A24,24,0,0,0,275,59.13a6.2,6.2,0,0,0-2.28-.62q-8.31,0-14.35,8.75a34.58,34.58,0,0,0-6,20.16q0,11.34,3.11,17a10,10,0,0,0,9.34,5.68,15.35,15.35,0,0,0,8.75-2.42,35,35,0,0,0,5.42-5.26Q277.18,84.1,277.19,75Z"/><path class="cls-1" d="M346.83,88.67l-1.23,23.24a126.07,126.07,0,0,1-2.2,22.61q-2.41,11.21-7.73,16.53-6.44,6.44-18.62,6.44a48.75,48.75,0,0,1-12-1.25q-6.76-1.73-6.76-7.19c0-4.11,1.55-6.16,4.67-6.16a29.39,29.39,0,0,1,6.44,1.21,34.6,34.6,0,0,0,10,1.07q10.29-.19,14.21-12.86,2.58-8.44,2.74-25.94-2.89,6.91-6.89,10.38a13.63,13.63,0,0,1-9.15,3.46q-9.72,0-15.8-8.55T298.44,89.5q0-18.68,8.31-30.09,8.6-11.76,23.4-11.76a18.89,18.89,0,0,1,8.37,1.66,11.44,11.44,0,0,1,5.15,5q5.74.21,5.74,8.23a102.31,102.31,0,0,1-1.13,13.14Q347,85.22,346.83,88.67ZM329.61,58.72q-10.2,0-15.78,9.06-5,8.16-5,20.75,0,10,2.95,15.07a9.59,9.59,0,0,0,8.85,5.05q5.42,0,10.52-7.88a32.2,32.2,0,0,0,5.25-14.39q1.14-7.47,2.42-23.45a15.57,15.57,0,0,0-4.45-3.18A11.59,11.59,0,0,0,329.61,58.72Z"/><path class="cls-1" d="M381.12,122.56q-9,0-15.51-8.58-7.25-9.54-7.62-25.66-.32-15.63,6.12-27.53,7.51-14,20.93-14,10.72,0,16.25,12.66Q405.7,69.64,405.53,84q-.15,15.36-6.22,26.22Q392.44,122.55,381.12,122.56Zm3.22-61.77q-7.89-.06-12.29,9.68a43.5,43.5,0,0,0-3.49,17.85q0,10,4.24,15.63,3.54,4.64,8.32,4.64,5.58,0,9.6-5.26,4.56-5.81,4.83-15.7Q396.3,60.86,384.34,60.79Z"/><path class="cls-1" d="M240.16,228.71l-3.08-6.9a12,12,0,0,1-1.64-7l.25-3.61c.09-1.27-.48-2.5-3.61-4.5L135.71,144.8l-1-6.88a1.06,1.06,0,0,0-.42-.53l-2.48-1.59a.94.94,0,0,0-1.35.41l-2,4a1.87,1.87,0,0,0-2.49.92l-5.14,10a2.34,2.34,0,0,0,.73,3l82.21,52.8-5.47,10.64-.87,1.69-.45.89,0,.09c-1.72,3.34-2.42,7.3-1.25,10.63a22.81,22.81,0,0,0,8,9.9l.08,0a11.37,11.37,0,0,0,9.5,1.39,12.79,12.79,0,0,0,7.63-6.5h0l.31-.6c.41,2.29,2.54,4.71,1.42,17.84a25.6,25.6,0,0,1-.33,2.61,3.27,3.27,0,0,0,2.42,3.72l12.08,2.38c2.72.54,5.54.25,7.64-1.75,2.5-2.38,2.73-4.78,2.88-8.7C247.29,251.2,247.91,246,240.16,228.71ZM217,233.16a8.21,8.21,0,0,1-4.88,4.16,7.31,7.31,0,0,1-6.09-.89l0,0a19.43,19.43,0,0,1-5.85-6.82,6.44,6.44,0,0,1,.45-6s.81-1.78,2.17-.91l9.51,6.11-.22.07a13.17,13.17,0,0,1-2.9.76.57.57,0,0,0-.4.37.73.73,0,0,0,0,.58l.85,1.8a.6.6,0,0,0,.55.36s2.19,0,3.32-.16a23.54,23.54,0,0,0,3.41-.69A1.2,1.2,0,0,1,217,233.16Zm4.27-5.38-2.12-1.35,1.68-3.27-13.26-8.52a1.6,1.6,0,0,1-.5-2,1.28,1.28,0,0,1,1.83-.55l13.26,8.52,2.54-5-13.26-8.51a1.59,1.59,0,0,1-.49-2,1.26,1.26,0,0,1,1.83-.55L226,213l1.44-2.82,2.12,1.36ZM234,253.4A2.92,2.92,0,0,1,231.9,250a2.66,2.66,0,0,1,3-2.37,2.91,2.91,0,0,1,2.12,3.39A2.65,2.65,0,0,1,234,253.4Z"/><path class="cls-1" d="M237,212.83l-.14,2.08a10.41,10.41,0,0,0,.19,2.84,26,26,0,0,1,4.58-1.22,13.29,13.29,0,0,1,3-.29.58.58,0,0,0,.44-.31.73.73,0,0,0,.06-.58l-.62-1.91a.61.61,0,0,0-.5-.44s-2.17-.32-3.3-.36A22,22,0,0,0,237,212.83Z"/><path class="cls-1" d="M119.39,216.24a13.29,13.29,0,0,1,3,.29,26,26,0,0,1,4.58,1.22,10.41,10.41,0,0,0,.19-2.84l-.15-2.08a21.83,21.83,0,0,0-3.67-.19c-1.14,0-3.3.36-3.3.36a.62.62,0,0,0-.51.44l-.61,1.91a.69.69,0,0,0,0,.58A.59.59,0,0,0,119.39,216.24Z"/><path class="cls-1" d="M242.39,154.13a2.36,2.36,0,0,0,.73-3l-5.15-10a1.86,1.86,0,0,0-2.48-.92l-2-4a1,1,0,0,0-1.36-.41l-2.48,1.59a1.09,1.09,0,0,0-.41.53l-1,6.88-42,27L200.57,181Z"/><path class="cls-1" d="M163.39,186.44l-31.51,20.24c-3.13,2-3.7,3.23-3.61,4.5l.25,3.61a12,12,0,0,1-1.64,7l-3.08,6.9c-7.75,17.26-7.13,22.49-7.13,22.49.15,3.92.37,6.32,2.87,8.7,2.11,2,4.92,2.29,7.65,1.75l12.08-2.38a3.27,3.27,0,0,0,2.42-3.72,22.21,22.21,0,0,1-.33-2.61c-1.12-13.13,1-15.55,1.42-17.84l.31.59v0a12.81,12.81,0,0,0,7.63,6.5,11.38,11.38,0,0,0,9.51-1.39l.08,0a22.88,22.88,0,0,0,7.95-9.9c1.17-3.33.47-7.29-1.25-10.63a.79.79,0,0,1,0-.09l-.46-.89-.87-1.69-5.46-10.64,17.55-11.28Zm-33.46,67a2.66,2.66,0,0,1-3-2.37,2.91,2.91,0,0,1,2.12-3.39,2.65,2.65,0,0,1,3,2.37A2.92,2.92,0,0,1,129.93,253.4Zm12.81-25.62-8.33-16.22,2.12-1.36L138,213l13.26-8.51a1.25,1.25,0,0,1,1.82.55,1.59,1.59,0,0,1-.49,2l-13.26,8.51,2.55,5,13.26-8.52a1.26,1.26,0,0,1,1.82.55,1.59,1.59,0,0,1-.49,2l-13.26,8.52,1.68,3.27Zm18.52-5.15c1.36-.87,2.17.91,2.17.91a6.44,6.44,0,0,1,.45,6A19.55,19.55,0,0,1,158,236.4l-.05,0a7.31,7.31,0,0,1-6.09.89,8.25,8.25,0,0,1-4.89-4.16,1.21,1.21,0,0,1,.13-1.33,22,22,0,0,0,3.41.69c1.12.14,3.31.16,3.31.16a.59.59,0,0,0,.55-.35l.85-1.81a.73.73,0,0,0,0-.58.61.61,0,0,0-.4-.37,13.3,13.3,0,0,1-2.91-.76l-.21-.07Z"/><path class="cls-1" d="M175.79,225.89c-.83,0-4,5.15-4.34,7.38h8.69C179.84,231,176.63,225.89,175.79,225.89Z"/><path class="cls-1" d="M181.31,258.29V243.75l-1.12-1.59v-8h-8.76c0,1.84,0,8,0,8l-1.12,1.6v14.51h.88v1h-.88v1.64h11v-1.57h-.88v-1Z"/><path class="cls-1" d="M191,237c-.83,0-4,5.15-4.34,7.39h8.69C195.06,242.11,191.85,237,191,237Z"/><path class="cls-1" d="M195.67,258.29h.87V249.8l-1.11-1.61v-3h-8.77v3l-1.13,1.6v8.52h.88v1h-.88v1.64h11v-1.57h-.88Z"/></g></g></svg>