<svg xmlns="http://www.w3.org/2000/svg" viewBox="0 0 346.95 142.24"><defs><style>.cls-1{fill:#4b4b4b;}</style></defs><title>ELdrago 4</title><g id="Слой_2" data-name="Слой 2"><g id="Слой_1-2" data-name="Слой 1"><path class="cls-1" d="M0,109.63l6.2-1.7a3.1,3.1,0,0,0,1.64-1.32,4.3,4.3,0,0,0,.66-2.4v-70a4.37,4.37,0,0,0-.66-2.45A3.1,3.1,0,0,0,6.2,30.43L0,28.79v-3H49V46.17H46.3L42.83,32.76a4.89,4.89,0,0,0-.68-1.58,1.51,1.51,0,0,0-1.32-.63H17.29V65H32.72a1.68,1.68,0,0,0,1.42-.57A4.1,4.1,0,0,0,34.82,63l2.79-10.33H40V82.18H37.61L34.82,72a4.54,4.54,0,0,0-.68-1.61,1.66,1.66,0,0,0-1.42-.59H17.29v38H45a1.53,1.53,0,0,0,1.32-.6,4.4,4.4,0,0,0,.68-1.6L50.3,90.43H53v22.16H0Z"/><path class="cls-1" d="M58,109.63l6.2-1.7a3.1,3.1,0,0,0,1.64-1.32,4.3,4.3,0,0,0,.66-2.4v-70a4.37,4.37,0,0,0-.66-2.45,3.1,3.1,0,0,0-1.64-1.32L58,28.79v-3H84.15v3l-6.5,1.64A2.86,2.86,0,0,0,76,31.75a4.49,4.49,0,0,0-.68,2.45v73.6H100a1.22,1.22,0,0,0,.86-.34,3,3,0,0,0,.61-.89,6.83,6.83,0,0,0,.39-1.1c.09-.38.18-.71.24-1l3.71-16.62h2.59v24.75H58Z"/><path class="cls-1" d="M145.44,103.46a25.11,25.11,0,0,1-4.3,5.73,18.23,18.23,0,0,1-4.27,3.11,12.25,12.25,0,0,1-3.86,1.29,22,22,0,0,1-3,.26,14.07,14.07,0,0,1-7.84-2.24,19,19,0,0,1-5.84-6.2A32.56,32.56,0,0,1,112.67,96a51.67,51.67,0,0,1-1.27-11.84,56.83,56.83,0,0,1,1.52-13.38,37.4,37.4,0,0,1,4.37-10.92,22.91,22.91,0,0,1,7-7.36,16.84,16.84,0,0,1,9.43-2.71,13.68,13.68,0,0,1,3.81.5,13,13,0,0,1,3.1,1.36,12.63,12.63,0,0,1,2.49,2,25.14,25.14,0,0,1,2,2.23V30.74a5.71,5.71,0,0,0-.64-2.8,4.41,4.41,0,0,0-2.34-1.86L137,24v-1.7l16.26-4.85v83.42a5.43,5.43,0,0,0,.66,2.77,4.62,4.62,0,0,0,2.37,1.82l4.5,1.83V109l-14.41,4.85h-1ZM145.1,59a8,8,0,0,0-2.2-1.7A16.23,16.23,0,0,0,140,56a19.76,19.76,0,0,0-2.9-.76,14.83,14.83,0,0,0-2.35-.25,10.68,10.68,0,0,0-6.51,2,16.09,16.09,0,0,0-4.62,5.41,27.76,27.76,0,0,0-2.76,7.84,46.94,46.94,0,0,0-.9,9.35,64.53,64.53,0,0,0,.85,10.89,31,31,0,0,0,2.64,8.56,15,15,0,0,0,4.54,5.6,10.8,10.8,0,0,0,6.57,2,13.16,13.16,0,0,0,5.47-1.36,12.05,12.05,0,0,0,2.81-2,10,10,0,0,0,2.22-3Z"/><path class="cls-1" d="M163.8,109.75l5.42-1.57a2.92,2.92,0,0,0,1.59-1.26,4.19,4.19,0,0,0,.61-2.33V63.23a5.65,5.65,0,0,0-.68-2.83,5,5,0,0,0-2.35-2l-4.49-2.07v-1.7l15.19-4.35V64.11q1.17-2.46,2.59-5a25.75,25.75,0,0,1,3.22-4.59,17.48,17.48,0,0,1,4-3.37,9.18,9.18,0,0,1,4.86-1.32,14.53,14.53,0,0,1,2.35.16,12.27,12.27,0,0,1,1.75.4,10.26,10.26,0,0,1,1.47.6c.46.23,1,.48,1.51.73V66.44h-2.49l-1.56-5.29a2.18,2.18,0,0,0-.83-1.1,5.2,5.2,0,0,0-1.44-.76,11.26,11.26,0,0,0-1.71-.44,10.08,10.08,0,0,0-1.64-.15,9.61,9.61,0,0,0-3.32.56,11.66,11.66,0,0,0-3,1.64,14.77,14.77,0,0,0-2.71,2.71,30.45,30.45,0,0,0-2.51,3.77v37.21a4.28,4.28,0,0,0,.61,2.39,2.62,2.62,0,0,0,1.59,1.2l6.3,1.57v2.84H163.8Z"/><path class="cls-1" d="M229.47,108.94a17.56,17.56,0,0,1-4.1,3.11,13.61,13.61,0,0,1-4.11,1.45,22.34,22.34,0,0,1-3.73.35,9.88,9.88,0,0,1-5.06-1.33,13,13,0,0,1-3.91-3.52,17,17,0,0,1-2.54-5.16,21.35,21.35,0,0,1-.9-6.24,20.81,20.81,0,0,1,1-6.86A18.51,18.51,0,0,1,209,85.42a18.82,18.82,0,0,1,4.08-3.9,25.16,25.16,0,0,1,4.74-2.62,25.94,25.94,0,0,1,4.88-1.48,24.4,24.4,0,0,1,4.54-.47,10.55,10.55,0,0,1,1.27.1l1.74.19,1.76.15c.57,0,1,.07,1.34.07l.05-11.34a25.2,25.2,0,0,0-.42-5,8,8,0,0,0-1.27-3.18,4.56,4.56,0,0,0-2.17-1.64,9.58,9.58,0,0,0-3.17-.47,11.17,11.17,0,0,0-4.67,1,22.53,22.53,0,0,0-4.27,2.55,38.65,38.65,0,0,0-3.71,3.18l-2.93,2.86h-1.08l-1.51-10q1.41-1,3.15-2a25.85,25.85,0,0,1,3.73-1.83,29.73,29.73,0,0,1,4.28-1.29,22.26,22.26,0,0,1,4.76-.5,19.07,19.07,0,0,1,6.1,1,15.41,15.41,0,0,1,5.67,3.37A17.09,17.09,0,0,1,240,60.4a24,24,0,0,1,1.53,9.38l-.29,33a5,5,0,0,0,.25,1.66,3.21,3.21,0,0,0,.75,1.26,3.36,3.36,0,0,0,1.27.82,5.1,5.1,0,0,0,1.79.28,4.11,4.11,0,0,0,.78-.12l1.19-.28c.44-.11.88-.24,1.32-.38l1.15-.41h.49v3c-.46.46-1.05,1-1.79,1.61a21.68,21.68,0,0,1-2.39,1.7,19.77,19.77,0,0,1-2.68,1.35,7.05,7.05,0,0,1-2.67.57,9.68,9.68,0,0,1-3.27-.51,5.28,5.28,0,0,1-2.37-1.67,7.68,7.68,0,0,1-1.41-3.14,22.15,22.15,0,0,1-.47-5A21.08,21.08,0,0,1,229.47,108.94Zm3.88-28.27a35.93,35.93,0,0,0-8,.82,17,17,0,0,0-6.11,2.58,11.74,11.74,0,0,0-3.88,4.53A14.82,14.82,0,0,0,214,95.21a17.2,17.2,0,0,0,.76,5.51,10.6,10.6,0,0,0,1.95,3.62,7,7,0,0,0,2.69,2,7.72,7.72,0,0,0,2.9.6,12.38,12.38,0,0,0,2.91-.38,12.66,12.66,0,0,0,3-1.16,13,13,0,0,0,2.79-2,11.53,11.53,0,0,0,2.24-3Z"/><path class="cls-1" d="M259.31,110.38a11.07,11.07,0,0,1-2.59-2.3,12.07,12.07,0,0,1-2.81-8,11,11,0,0,1,3.15-8.16A11.84,11.84,0,0,1,260,89.73a22.48,22.48,0,0,1,2.91-1.26,20.43,20.43,0,0,1-3.37-3,17.18,17.18,0,0,1-2.62-3.87,21.15,21.15,0,0,1-1.7-5,30.26,30.26,0,0,1-.62-6.42A21.46,21.46,0,0,1,256,62.5,20.86,20.86,0,0,1,259.84,56a19.05,19.05,0,0,1,5.89-4.5,16.46,16.46,0,0,1,7.47-1.7,20.5,20.5,0,0,1,4.23.5,34.36,34.36,0,0,1,4.37,1.26h16.94l-1.12,7.49L283.8,54.79a21.71,21.71,0,0,1,2.71,3.65,25.75,25.75,0,0,1,1.91,4,24,24,0,0,1,1.12,4.06,22.73,22.73,0,0,1,.36,3.94,27.42,27.42,0,0,1-1.17,8.21,19.06,19.06,0,0,1-3.42,6.49,15.62,15.62,0,0,1-5.54,4.28,17.59,17.59,0,0,1-7.55,1.54l-1.63,0c-.57,0-1.13-.07-1.69-.13a14.6,14.6,0,0,1-1.63-.28c-.54-.13-1-.27-1.54-.44a3.85,3.85,0,0,0-1.78.47,5.74,5.74,0,0,0-1.64,1.29,6.44,6.44,0,0,0-1.61,4.28,9.41,9.41,0,0,0,.36,2.71,6.11,6.11,0,0,0,1,2,4.35,4.35,0,0,0,1.49,1.26,3.75,3.75,0,0,0,1.78.44h15.38a17.48,17.48,0,0,1,7.6,1.48,13.89,13.89,0,0,1,4.91,3.84,14.71,14.71,0,0,1,2.63,5.26,21.74,21.74,0,0,1,.78,5.67,22.64,22.64,0,0,1-7.27,16.9,24.4,24.4,0,0,1-7.91,4.85,27.16,27.16,0,0,1-9.72,1.73,31.4,31.4,0,0,1-8.21-1,19.4,19.4,0,0,1-6.42-3,13.74,13.74,0,0,1-4.2-4.88,14.54,14.54,0,0,1-1.49-6.73,17.13,17.13,0,0,1,.88-5.8,14.38,14.38,0,0,1,2.34-4.25,13.37,13.37,0,0,1,3.35-3,25,25,0,0,1,3.93-2A10.84,10.84,0,0,1,259.31,110.38Zm5.59,1.39a5.73,5.73,0,0,0-1.83,1.16,8.26,8.26,0,0,0-1.74,2.3,15,15,0,0,0-1.29,3.56,20.84,20.84,0,0,0-.51,4.88,15.15,15.15,0,0,0,.68,4.78,12.82,12.82,0,0,0,1.83,3.62,11.51,11.51,0,0,0,2.64,2.58,15.82,15.82,0,0,0,3.08,1.7,15.11,15.11,0,0,0,3.17,1,16.56,16.56,0,0,0,2.91.28,19.66,19.66,0,0,0,5.71-.85,14.85,14.85,0,0,0,5.1-2.68,13.48,13.48,0,0,0,3.67-4.65,15.13,15.13,0,0,0,1.39-6.74,14.35,14.35,0,0,0-.54-3.84,10.62,10.62,0,0,0-1.66-3.49,8.87,8.87,0,0,0-2.93-2.55,8.69,8.69,0,0,0-4.35-1Zm7.91-24.43a5.7,5.7,0,0,0,3.88-1.42,10.43,10.43,0,0,0,2.69-3.84,22.89,22.89,0,0,0,1.54-5.57,43.8,43.8,0,0,0,.49-6.61,32,32,0,0,0-.64-6.58A20,20,0,0,0,279,58.16a10,10,0,0,0-2.78-3.4,6,6,0,0,0-3.69-1.23,6.58,6.58,0,0,0-4.15,1.32,9.94,9.94,0,0,0-2.81,3.59A19.7,19.7,0,0,0,264,63.7a36.54,36.54,0,0,0-.52,6.33,33.93,33.93,0,0,0,.64,6.8,20.78,20.78,0,0,0,1.83,5.47,10.72,10.72,0,0,0,3,3.69A6.32,6.32,0,0,0,272.81,87.34Z"/><path class="cls-1" d="M324.14,114.29a18.93,18.93,0,0,1-9.26-2.27,20.52,20.52,0,0,1-7-6.48,32.27,32.27,0,0,1-4.47-10.14,51.9,51.9,0,0,1-1.56-13.22,49.08,49.08,0,0,1,1.56-12.62,34.17,34.17,0,0,1,4.5-10.3A22.13,22.13,0,0,1,315,52.34a18.39,18.39,0,0,1,9.6-2.52,18.17,18.17,0,0,1,10,2.67,22.08,22.08,0,0,1,6.94,7.12,33.92,33.92,0,0,1,4.07,10.26A53.2,53.2,0,0,1,347,81.93a49.79,49.79,0,0,1-1.54,12.56,34.18,34.18,0,0,1-4.47,10.29,22.57,22.57,0,0,1-7.15,7A18.33,18.33,0,0,1,324.14,114.29ZM323.51,82c2.61,0,6.07,27.26,7.76,25.52a18.73,18.73,0,0,0,4-6.61,39.19,39.19,0,0,0,2.08-8.72c.39-3.15-13.87-7.34-13.87-10.19,0-3.48,14.2-5.78,13.69-9.27a41.87,41.87,0,0,0-2.41-9.41,19.34,19.34,0,0,0-4.35-6.8C328.65,54.78,326.05,82,323.51,82c-1.72,0-2.81-27.69-4.11-26.89A11.78,11.78,0,0,0,316,58.35a19.79,19.79,0,0,0-2.44,4.72A39.83,39.83,0,0,0,312,68.74a51,51,0,0,0-.85,6.07c-.16,2.06,12.41,5.3,12.41,7.19,0,2.1-12.57,3-12.39,5.28a55.27,55.27,0,0,0,.93,6.64,45.83,45.83,0,0,0,1.71,6.2,21.14,21.14,0,0,0,2.61,5.16,13.23,13.23,0,0,0,3.64,3.53C321.4,109.69,321.69,82,323.51,82Z"/><rect class="cls-1" x="263.61" y="11.63" width="4.91" height="6.18"/><path class="cls-1" d="M268.33,6.54a.66.66,0,0,0-.4-.6.64.64,0,0,0-.71.15L264,9.81h4.36V6.54Z"/><rect class="cls-1" x="206.72" width="2.91" height="7.09"/><rect class="cls-1" x="241.07" width="2.91" height="7.09"/><polygon class="cls-1" points="218.17 6.15 218.17 10.54 220.17 10.54 220.17 5.69 221.3 5.45 229.22 5.45 230.35 5.69 230.35 10.54 232.53 10.54 232.53 6.15 236.94 7.09 239.25 7.09 239.25 0 236.97 0 229.27 1.64 221.43 1.64 213.73 0 211.45 0 211.45 7.09 213.75 7.09 218.17 6.15"/><path class="cls-1" d="M192.76,20.84l-14.67,3a3.31,3.31,0,0,0-2.48,4.26L178.82,38A3.3,3.3,0,0,0,184,39.53L196.09,30l4.16.83,1.2-1.29a5.59,5.59,0,0,0,1.2,1.46,3.35,3.35,0,0,0,2.55.82h4.49a4,4,0,0,0,2.47-.49A5.46,5.46,0,0,0,214.4,29a5.55,5.55,0,0,0,.68-2.51V23.67l4.36-.19V21.64a1.19,1.19,0,0,1,2.37,0v1.74l3.09-.13V21.44a1.17,1.17,0,0,1,.8-1.13,1.18,1.18,0,0,1,1.56,1.12v1.72l3.09-.13v-1.8a1.18,1.18,0,0,1,2.36,0v1.7l3.09-.13V21A1.09,1.09,0,1,1,238,21v1.56l1.18-.05a4.7,4.7,0,0,0,4.73-4.67h18.26V11.63H206.49Zm15.51,6.51L209.35,26a10.73,10.73,0,0,1-.85-2l4-.17v2.75a2.75,2.75,0,0,1-.17.82,3.59,3.59,0,0,1-1,1.45,2.6,2.6,0,0,1-1.78.64h-4.49a1.39,1.39,0,0,1-1-.36,3.91,3.91,0,0,1-1-1.47l2.86-3.05C207.42,27,208.27,27.35,208.27,27.35Z"/></g></g></svg>