<svg xmlns="http://www.w3.org/2000/svg" xmlns:xlink="http://www.w3.org/1999/xlink" viewBox="0 0 434.81 87.35"><defs><style>.cls-1{fill:#fcdf00;}.cls-2{fill:#663411;}.cls-3{fill:url(#Безымянный_градиент_2);}.cls-4{fill:url(#Безымянный_градиент_3);}.cls-5{fill:url(#Безымянный_градиент_4);}.cls-6{fill:url(#Безымянный_градиент_5);}.cls-7{fill:url(#Безымянный_градиент_6);}.cls-8{fill:url(#Безымянный_градиент_7);}.cls-9{fill:url(#Безымянный_градиент_16);}.cls-10{fill:url(#Безымянный_градиент_9);}.cls-11{fill:url(#Безымянный_градиент_72);}.cls-12{fill:url(#Безымянный_градиент_11);}.cls-13{fill:url(#Безымянный_градиент_12);}.cls-14{fill:url(#Безымянный_градиент_19);}.cls-15{fill:url(#Безымянный_градиент_17);}.cls-16{fill:url(#Безымянный_градиент_17-2);}.cls-17{fill:url(#Безымянный_градиент_16-2);}.cls-18{fill:url(#Безымянный_градиент_17-3);}.cls-19{fill:url(#Безымянный_градиент_18);}.cls-20{fill:url(#Безымянный_градиент_19-2);}.cls-21{fill:url(#Безымянный_градиент_20);}.cls-22{fill:url(#Безымянный_градиент_88);}.cls-23{fill:url(#Безымянный_градиент_22);}.cls-24{fill:url(#Безымянный_градиент_23);}.cls-25{fill:url(#Безымянный_градиент_91);}.cls-26{fill:url(#Безымянный_градиент_117);}.cls-27{fill:url(#Безымянный_градиент_116);}.cls-28{fill:url(#Безымянный_градиент_117-2);}.cls-29{fill:url(#Безымянный_градиент_116-2);}.cls-30{fill:url(#Безымянный_градиент_117-3);}.cls-31{fill:url(#Безымянный_градиент_116-3);}.cls-32{fill:url(#Безымянный_градиент_31);}.cls-33{fill:url(#Безымянный_градиент_41);}.cls-34{fill:url(#Безымянный_градиент_33);}.cls-35{fill:url(#Безымянный_градиент_34);}.cls-36{fill:url(#Безымянный_градиент_72-2);}.cls-37{fill:url(#Безымянный_градиент_36);}.cls-38{fill:url(#Безымянный_градиент_37);}.cls-39{fill:url(#Безымянный_градиент_38);}.cls-40{fill:url(#Безымянный_градиент_39);}.cls-41{fill:url(#Безымянный_градиент_87);}.cls-42{fill:url(#Безымянный_градиент_41-2);}.cls-43{fill:url(#Безымянный_градиент_42);}.cls-44{fill:url(#Безымянный_градиент_88-2);}.cls-45{fill:url(#Безымянный_градиент_117-4);}.cls-46{fill:url(#Безымянный_градиент_116-4);}.cls-47{fill:url(#Безымянный_градиент_46);}.cls-48{fill:url(#Безымянный_градиент_47);}.cls-49{fill:url(#Безымянный_градиент_48);}.cls-50{fill:url(#Безымянный_градиент_49);}.cls-51{fill:url(#Безымянный_градиент_72-3);}.cls-52{fill:url(#Безымянный_градиент_51);}.cls-53{fill:url(#Безымянный_градиент_88-3);}.cls-54{fill:url(#Безымянный_градиент_53);}.cls-55{fill:url(#Безымянный_градиент_112);}.cls-56{fill:url(#Безымянный_градиент_55);}.cls-57{fill:url(#Безымянный_градиент_91-2);}.cls-58{fill:url(#Безымянный_градиент_116-5);}.cls-59{fill:url(#Безымянный_градиент_117-5);}.cls-60{fill:url(#Безымянный_градиент_59);}.cls-61{fill:url(#Безымянный_градиент_60);}.cls-62{fill:url(#Безымянный_градиент_61);}.cls-63{fill:url(#Безымянный_градиент_62);}.cls-64{fill:url(#Безымянный_градиент_63);}.cls-65{fill:url(#Безымянный_градиент_64);}.cls-66{fill:url(#Безымянный_градиент_65);}.cls-67{fill:url(#Безымянный_градиент_66);}.cls-68{fill:url(#Безымянный_градиент_67);}.cls-69{fill:url(#Безымянный_градиент_68);}.cls-70{fill:url(#Безымянный_градиент_72-4);}.cls-71{fill:url(#Безымянный_градиент_70);}.cls-72{fill:url(#Безымянный_градиент_71);}.cls-73{fill:url(#Безымянный_градиент_72-5);}.cls-74{fill:url(#Безымянный_градиент_73);}.cls-75{fill:url(#Безымянный_градиент_88-4);}.cls-76{fill:url(#Безымянный_градиент_112-2);}.cls-77{fill:url(#Безымянный_градиент_112-3);}.cls-78{fill:url(#Безымянный_градиент_77);}.cls-79{fill:url(#Безымянный_градиент_78);}.cls-80{fill:url(#Безымянный_градиент_79);}.cls-81{fill:url(#Безымянный_градиент_80);}.cls-82{fill:url(#Безымянный_градиент_81);}.cls-83{fill:url(#Безымянный_градиент_82);}.cls-84{fill:url(#Безымянный_градиент_83);}.cls-85{fill:url(#Безымянный_градиент_84);}.cls-86{fill:url(#Безымянный_градиент_85);}.cls-87{fill:url(#Безымянный_градиент_86);}.cls-88{fill:url(#Безымянный_градиент_87-2);}.cls-89{fill:url(#Безымянный_градиент_88-5);}.cls-90{fill:url(#Безымянный_градиент_112-4);}.cls-91{fill:url(#Безымянный_градиент_90);}.cls-92{fill:url(#Безымянный_градиент_91-3);}.cls-93{fill:url(#Безымянный_градиент_92);}.cls-94{fill:url(#Безымянный_градиент_93);}.cls-95{fill:url(#Безымянный_градиент_116-6);}.cls-96{fill:url(#Безымянный_градиент_117-6);}.cls-97{fill:url(#Безымянный_градиент_117-7);}.cls-98{fill:url(#Безымянный_градиент_117-8);}.cls-99{fill:url(#Безымянный_градиент_117-9);}.cls-100{fill:url(#Безымянный_градиент_116-7);}.cls-101{fill:url(#Безымянный_градиент_116-8);}.cls-102{fill:url(#Безымянный_градиент_101);}.cls-103{fill:url(#Безымянный_градиент_111);}.cls-104{fill:url(#Безымянный_градиент_103);}.cls-105{fill:url(#Безымянный_градиент_104);}.cls-106{fill:url(#Безымянный_градиент_105);}.cls-107{fill:url(#Безымянный_градиент_106);}.cls-108{fill:url(#Безымянный_градиент_107);}.cls-109{fill:url(#Безымянный_градиент_108);}.cls-110{fill:url(#Безымянный_градиент_109);}.cls-111{fill:url(#Безымянный_градиент_110);}.cls-112{fill:url(#Безымянный_градиент_111-2);}.cls-113{fill:url(#Безымянный_градиент_112-5);}.cls-114{fill:url(#Безымянный_градиент_113);}.cls-115{fill:url(#Безымянный_градиент_114);}.cls-116{fill:url(#Безымянный_градиент_115);}.cls-117{fill:url(#Безымянный_градиент_116-9);}.cls-118{fill:url(#Безымянный_градиент_117-10);}.cls-119{fill:url(#Безымянный_градиент_118);}.cls-120{fill:url(#Безымянный_градиент_119);}.cls-121{fill:url(#Безымянный_градиент_122);}.cls-122{fill:url(#Безымянный_градиент_121);}.cls-123{fill:url(#Безымянный_градиент_122-2);}.cls-124{fill:url(#Безымянный_градиент_123);}</style><linearGradient id="Безымянный_градиент_2" x1="-59.9" y1="-86.01" x2="-59.14" y2="-86.01" gradientTransform="matrix(32.97, 0, 0, -42.5, 1989.58, -3616.56)" gradientUnits="userSpaceOnUse"><stop offset="0" stop-color="#663411"/><stop offset="0.71" stop-color="#663411"/><stop offset="1" stop-color="#fcdf00"/></linearGradient><linearGradient id="Безымянный_градиент_3" x1="-60.15" y1="-86.71" x2="-59.39" y2="-86.71" gradientTransform="matrix(24.42, 0, 0, -31.49, 1483.74, -2684.09)" gradientUnits="userSpaceOnUse"><stop offset="0" stop-color="#fcdf00"/><stop offset="0.8" stop-color="#fcdf00"/><stop offset="0.92" stop-color="#fcdf00"/><stop offset="1" stop-color="#fcdf00"/></linearGradient><linearGradient id="Безымянный_градиент_4" x1="-59.39" y1="-84.85" x2="-58.61" y2="-84.85" gradientTransform="matrix(17.98, 100.15, 77.7, -23.18, 7659.58, 3988.77)" gradientUnits="userSpaceOnUse"><stop offset="0" stop-color="#fcdf00"/><stop offset="0.02" stop-color="#fcdf00"/><stop offset="0.94" stop-color="#fcdf00"/><stop offset="1" stop-color="#663411"/></linearGradient><linearGradient id="Безымянный_градиент_5" x1="-58.29" y1="-82.28" x2="-57.52" y2="-82.28" gradientTransform="matrix(-33.34, 0, 0, 42.98, -1907.65, 3619.65)" gradientUnits="userSpaceOnUse"><stop offset="0" stop-color="#663411"/><stop offset="0.01" stop-color="#663411"/><stop offset="0.13" stop-color="#fcdf00"/><stop offset="1" stop-color="#fcdf00"/></linearGradient><linearGradient id="Безымянный_градиент_6" x1="-59.56" y1="-84.99" x2="-58.79" y2="-84.99" gradientTransform="matrix(52.07, 0, 0, -67.13, 3101.57, -5701.29)" gradientUnits="userSpaceOnUse"><stop offset="0" stop-color="#663411"/><stop offset="0.85" stop-color="#663411"/><stop offset="1" stop-color="#fcdf00"/></linearGradient><linearGradient id="Безымянный_градиент_7" x1="-59.58" y1="-83.02" x2="-58.8" y2="-83.02" gradientTransform="matrix(20.29, -15.97, -12.39, -26.16, 210.14, -3040.9)" gradientUnits="userSpaceOnUse"><stop offset="0" stop-color="#663411"/><stop offset="0.19" stop-color="#663411"/><stop offset="0.57" stop-color="#fcdf00"/><stop offset="1" stop-color="#fcdf00"/></linearGradient><linearGradient id="Безымянный_градиент_16" x1="-60.02" y1="-85.44" x2="-59.26" y2="-85.44" gradientTransform="matrix(27.61, 0, 0, -35.59, 1670.07, -3031.97)" gradientUnits="userSpaceOnUse"><stop offset="0" stop-color="#fcdf00"/><stop offset="0.82" stop-color="#fcdf00"/><stop offset="0.92" stop-color="#fcdf00"/><stop offset="1" stop-color="#fcdf00"/></linearGradient><linearGradient id="Безымянный_градиент_9" x1="-60.29" y1="-81.45" x2="-59.5" y2="-81.45" gradientTransform="matrix(8.05, -7.37, -5.71, -10.38, 47.42, -1249.25)" gradientUnits="userSpaceOnUse"><stop offset="0" stop-color="#663411"/><stop offset="0.54" stop-color="#663411"/><stop offset="0.58" stop-color="#fcdf00"/><stop offset="1" stop-color="#fcdf00"/></linearGradient><linearGradient id="Безымянный_градиент_72" x1="-59.39" y1="-84.71" x2="-58.61" y2="-84.71" gradientTransform="matrix(0, 83.14, 64.49, 0, 5468.53, 4947.11)" gradientUnits="userSpaceOnUse"><stop offset="0" stop-color="#fcdf00"/><stop offset="0.02" stop-color="#fcdf00"/><stop offset="0.09" stop-color="#fccf00" stop-opacity="0.8"/><stop offset="0.39" stop-color="#fcc100" stop-opacity="0.5"/><stop offset="0.5" stop-color="#fccf00" stop-opacity="0.2"/><stop offset="0.65" stop-color="#fcc100" stop-opacity="0.5"/><stop offset="0.92" stop-color="#fccf00" stop-opacity="0.5"/><stop offset="0.99" stop-color="#fcde00" stop-opacity="0.98"/><stop offset="0.99" stop-color="#fcdf00"/><stop offset="1" stop-color="#fcdf00"/></linearGradient><linearGradient id="Безымянный_градиент_11" x1="-59.4" y1="-84.9" x2="-58.62" y2="-84.9" gradientTransform="matrix(16.57, 99.09, 76.87, -21.36, 7519.69, 4077.57)" gradientUnits="userSpaceOnUse"><stop offset="0" stop-color="#341000"/><stop offset="0" stop-color="#341000"/><stop offset="0.07" stop-color="#341000" stop-opacity="0"/><stop offset="0.16" stop-color="#341000" stop-opacity="0.2"/><stop offset="0.34" stop-color="#341000" stop-opacity="0.5"/><stop offset="0.58" stop-color="#341000" stop-opacity="0.2"/><stop offset="0.77" stop-color="#341000" stop-opacity="0.5"/><stop offset="0.89" stop-color="#341000" stop-opacity="0"/><stop offset="0.98" stop-color="#341000"/><stop offset="1" stop-color="#341000"/></linearGradient><linearGradient id="Безымянный_градиент_12" x1="-59.56" y1="-84.99" x2="-58.79" y2="-84.99" gradientTransform="matrix(52.07, 0, 0, -67.13, 3101.57, -5701.29)" gradientUnits="userSpaceOnUse"><stop offset="0" stop-color="#fcdf00"/><stop offset="0.01" stop-color="#fcdf00"/><stop offset="0.13" stop-color="#341000" stop-opacity="0.5"/><stop offset="0.25" stop-color="#341000"/><stop offset="0.33" stop-color="#341000" stop-opacity="0.5"/><stop offset="0.55" stop-color="#341000" stop-opacity="0"/><stop offset="0.73" stop-color="#341000" stop-opacity="0"/><stop offset="0.89" stop-color="#341000"/><stop offset="1" stop-color="#341000"/></linearGradient><linearGradient id="Безымянный_градиент_19" x1="-60.54" y1="-82.97" x2="-59.76" y2="-82.97" gradientTransform="matrix(0, 17.78, 13.79, 0, 1176.46, 1112.85)" gradientUnits="userSpaceOnUse"><stop offset="0" stop-color="#fcdf00"/><stop offset="0.01" stop-color="#fcdf00"/><stop offset="0.11" stop-color="#341000" stop-opacity="0.5"/><stop offset="0.42" stop-color="#341000"/><stop offset="0.56" stop-color="#341000"/><stop offset="0.66" stop-color="#341000" stop-opacity="0.5"/><stop offset="0.8" stop-color="#341000" stop-opacity="0"/><stop offset="1" stop-color="#fcdf00"/></linearGradient><radialGradient id="Безымянный_градиент_17" cx="-60.7" cy="-85.64" r="1" gradientTransform="translate(474.52 902.74) scale(7.6 10.05)" gradientUnits="userSpaceOnUse"><stop offset="0" stop-color="#fff" stop-opacity="0.85"/><stop offset="0.94" stop-color="#fff" stop-opacity="0"/><stop offset="1" stop-color="#fff" stop-opacity="0"/></radialGradient><radialGradient id="Безымянный_градиент_17-2" cx="-61.75" cy="-86.32" r="1" gradientTransform="translate(308.57 557.53) scale(4.49 5.93)" xlink:href="#Безымянный_градиент_17"/><linearGradient id="Безымянный_градиент_16-2" x1="-60.02" y1="-85.33" x2="-59.26" y2="-85.33" xlink:href="#Безымянный_градиент_16"/><radialGradient id="Безымянный_градиент_17-3" cx="-61.93" cy="-83.74" r="1" gradientTransform="matrix(4.58, 1.94, 1.21, -4.99, 418.12, -289.21)" xlink:href="#Безымянный_градиент_17"/><linearGradient id="Безымянный_градиент_18" x1="-59.96" y1="-83.77" x2="-59.19" y2="-83.77" gradientTransform="matrix(25.99, -5.25, -4.07, -33.5, 1231.67, -3079.46)" gradientUnits="userSpaceOnUse"><stop offset="0" stop-color="#341000"/><stop offset="0.16" stop-color="#341000" stop-opacity="0"/><stop offset="0.92" stop-color="#341000" stop-opacity="0.5"/><stop offset="0.95" stop-color="#fcdf00"/><stop offset="1" stop-color="#fcdf00"/></linearGradient><linearGradient id="Безымянный_градиент_19-2" x1="-60.03" y1="-82.78" x2="-59.24" y2="-82.78" gradientTransform="matrix(0, 16.98, 13.18, 0, 1124.37, 1020.34)" xlink:href="#Безымянный_градиент_19"/><linearGradient id="Безымянный_градиент_20" x1="-60.21" y1="-82.82" x2="-59.44" y2="-82.82" gradientTransform="matrix(11.58, -10.85, -8.42, -14.92, 26.08, -1881.76)" gradientUnits="userSpaceOnUse"><stop offset="0" stop-color="#341000" stop-opacity="0"/><stop offset="0.8" stop-color="#341000" stop-opacity="0"/><stop offset="0.91" stop-color="#fcdf00"/><stop offset="1" stop-color="#fcdf00"/></linearGradient><radialGradient id="Безымянный_градиент_88" cx="-61.76" cy="-86.33" r="1" gradientTransform="matrix(4.7, 0.59, -0.36, 5, 265.36, 471.96)" gradientUnits="userSpaceOnUse"><stop offset="0" stop-color="#fff" stop-opacity="0.85"/><stop offset="0.68" stop-color="#fff" stop-opacity="0.5"/><stop offset="1" stop-color="#fff" stop-opacity="0"/></radialGradient><linearGradient id="Безымянный_градиент_22" x1="-57.04" y1="-86.6" x2="-56.26" y2="-86.6" gradientTransform="matrix(0, -17.42, -13.52, 0, -1135.3, -908.48)" gradientUnits="userSpaceOnUse"><stop offset="0" stop-color="#341000"/><stop offset="0.2" stop-color="#341000"/><stop offset="0.39" stop-color="#341000" stop-opacity="0.5"/><stop offset="0.56" stop-color="#341000"/><stop offset="0.71" stop-color="#341000" stop-opacity="0.5"/><stop offset="0.8" stop-color="#341000" stop-opacity="0"/><stop offset="0.96" stop-color="#fcdf00"/><stop offset="1" stop-color="#fcdf00"/></linearGradient><linearGradient id="Безымянный_градиент_23" x1="-59.58" y1="-83.02" x2="-58.8" y2="-83.02" gradientTransform="matrix(20.29, -15.97, -12.39, -26.16, 210.14, -3040.9)" gradientUnits="userSpaceOnUse"><stop offset="0" stop-color="#341000"/><stop offset="0.19" stop-color="#341000"/><stop offset="0.57" stop-color="#fcdf00"/><stop offset="1" stop-color="#fcdf00"/></linearGradient><radialGradient id="Безымянный_градиент_91" cx="-60.52" cy="-86.24" r="1" gradientTransform="translate(528.43 628.3) scale(8.6 6.27)" gradientUnits="userSpaceOnUse"><stop offset="0" stop-color="#fff" stop-opacity="0.85"/><stop offset="0.37" stop-color="#fff" stop-opacity="0.9"/><stop offset="1" stop-color="#fff" stop-opacity="0"/></radialGradient><radialGradient id="Безымянный_градиент_117" cx="-59.42" cy="-93.03" r="1" gradientTransform="matrix(0, 42.68, 1.37, 0, 138.29, 2579.92)" gradientUnits="userSpaceOnUse"><stop offset="0" stop-color="#341000" stop-opacity="0.5"/><stop offset="1" stop-color="#341000" stop-opacity="0"/></radialGradient><radialGradient id="Безымянный_градиент_116" cx="-59.27" cy="-68.12" r="1" gradientTransform="translate(-36.4 7806.49) rotate(90) scale(130.99 0.69)" gradientUnits="userSpaceOnUse"><stop offset="0" stop-color="#fff" stop-opacity="0.7"/><stop offset="0.94" stop-color="#fff" stop-opacity="0"/><stop offset="1" stop-color="#fff" stop-opacity="0"/></radialGradient><radialGradient id="Безымянный_градиент_117-2" cx="-60.26" cy="-98.72" r="1" gradientTransform="translate(669.05 110.43) scale(10.71 0.7)" xlink:href="#Безымянный_градиент_117"/><radialGradient id="Безымянный_градиент_116-2" cx="-60.16" cy="-106.89" r="1" gradientTransform="translate(730.89 88.81) scale(11.77 0.45)" xlink:href="#Безымянный_градиент_116"/><radialGradient id="Безымянный_градиент_117-3" cx="-59.81" cy="-101.19" r="1" gradientTransform="matrix(18.62, 0.57, -0.01, 0.58, 1137.19, 96.78)" xlink:href="#Безымянный_градиент_117"/><radialGradient id="Безымянный_градиент_116-3" cx="-60.06" cy="-60.96" r="1" gradientTransform="matrix(13.38, 0.36, 0.01, -0.4, 824.14, 1.11)" xlink:href="#Безымянный_градиент_116"/><linearGradient id="Безымянный_градиент_31" x1="-59.41" y1="-85.04" x2="-58.63" y2="-85.04" gradientTransform="matrix(15.43, 104.75, 81.26, -19.89, 7876.21, 4537.43)" gradientUnits="userSpaceOnUse"><stop offset="0" stop-color="#fcdf00"/><stop offset="0.04" stop-color="#fcdf00"/><stop offset="0.93" stop-color="#fcdf00"/><stop offset="0.99" stop-color="#663411"/><stop offset="1" stop-color="#663411"/></linearGradient><linearGradient id="Безымянный_градиент_41" x1="-58.46" y1="-83.42" x2="-57.7" y2="-83.42" gradientTransform="matrix(-64.12, 0, 0, 82.66, -3659.38, 6978.77)" gradientUnits="userSpaceOnUse"><stop offset="0" stop-color="#663411"/><stop offset="0.1" stop-color="#fcdf00"/><stop offset="1" stop-color="#fcdf00"/></linearGradient><linearGradient id="Безымянный_градиент_33" x1="-59.44" y1="-83.83" x2="-58.67" y2="-83.83" gradientTransform="matrix(49.21, -38.69, -30.01, -63.43, 465.84, -7516.06)" gradientUnits="userSpaceOnUse"><stop offset="0" stop-color="#663411"/><stop offset="0.75" stop-color="#663411"/><stop offset="0.9" stop-color="#fcdf00"/><stop offset="1" stop-color="#fcdf00"/></linearGradient><linearGradient id="Безымянный_градиент_34" x1="-59.08" y1="-82.96" x2="-58.29" y2="-82.96" gradientTransform="matrix(8.22, -33.18, -25.74, -10.59, -1573.08, -2811.47)" gradientUnits="userSpaceOnUse"><stop offset="0" stop-color="#663411"/><stop offset="0.6" stop-color="#663411"/><stop offset="0.77" stop-color="#fcdf00"/><stop offset="1" stop-color="#fcdf00"/></linearGradient><linearGradient id="Безымянный_градиент_72-2" x1="-59.39" y1="-84.89" x2="-58.61" y2="-84.89" gradientTransform="matrix(0, 83.14, 64.49, 0, 5533.14, 4947.18)" xlink:href="#Безымянный_градиент_72"/><linearGradient id="Безымянный_градиент_36" x1="-59.42" y1="-85.07" x2="-58.64" y2="-85.07" gradientTransform="matrix(16.97, 104.5, 81.07, -21.88, 7965.16, 4351.91)" gradientUnits="userSpaceOnUse"><stop offset="0" stop-color="#341000" stop-opacity="0"/><stop offset="0.01" stop-color="#341000" stop-opacity="0"/><stop offset="0.1" stop-color="#341000" stop-opacity="0.2"/><stop offset="0.34" stop-color="#341000" stop-opacity="0.5"/><stop offset="0.58" stop-color="#341000" stop-opacity="0.2"/><stop offset="0.77" stop-color="#341000" stop-opacity="0.5"/><stop offset="0.89" stop-color="#341000" stop-opacity="0"/><stop offset="0.98" stop-color="#341000"/><stop offset="1" stop-color="#341000"/></linearGradient><linearGradient id="Безымянный_градиент_37" x1="-60.54" y1="-79.65" x2="-59.77" y2="-79.65" gradientTransform="matrix(4.27, -8.56, -6.64, -5.5, -205.6, -949.15)" gradientUnits="userSpaceOnUse"><stop offset="0" stop-color="#fcdf00" stop-opacity="0"/><stop offset="0.76" stop-color="#fcdf00" stop-opacity="0"/><stop offset="0.97" stop-color="#663411"/><stop offset="1" stop-color="#663411"/></linearGradient><linearGradient id="Безымянный_градиент_38" x1="-59.44" y1="-83.83" x2="-58.67" y2="-83.83" gradientTransform="matrix(49.21, -38.69, -30.01, -63.43, 465.84, -7516.06)" gradientUnits="userSpaceOnUse"><stop offset="0" stop-color="#341000"/><stop offset="0.75" stop-color="#341000"/><stop offset="0.87" stop-color="#fcdf00"/><stop offset="1" stop-color="#fcdf00"/></linearGradient><linearGradient id="Безымянный_градиент_39" x1="-57.02" y1="-85.68" x2="-56.23" y2="-85.68" gradientTransform="matrix(0, -17.23, -13.36, 0, -1057.66, -897.09)" gradientUnits="userSpaceOnUse"><stop offset="0" stop-color="#341000"/><stop offset="0.1" stop-color="#341000"/><stop offset="0.4" stop-color="#341000" stop-opacity="0.5"/><stop offset="0.74" stop-color="#341000" stop-opacity="0.5"/><stop offset="0.96" stop-color="#fcdf00"/><stop offset="1" stop-color="#fcdf00"/></linearGradient><radialGradient id="Безымянный_градиент_87" cx="-60.95" cy="-86.26" r="1" gradientTransform="translate(454.53 619.1) scale(6.51 6.16)" gradientUnits="userSpaceOnUse"><stop offset="0" stop-color="#fff" stop-opacity="0.85"/><stop offset="0.37" stop-color="#fff" stop-opacity="0.85"/><stop offset="1" stop-color="#fff" stop-opacity="0"/></radialGradient><linearGradient id="Безымянный_градиент_41-2" x1="-58.46" y1="-83.41" x2="-57.7" y2="-83.41" xlink:href="#Безымянный_градиент_41"/><linearGradient id="Безымянный_градиент_42" x1="-60.42" y1="-85.3" x2="-59.66" y2="-85.3" gradientTransform="matrix(27.79, 0, 0, -35.83, 1728.6, -3051.51)" gradientUnits="userSpaceOnUse"><stop offset="0" stop-color="#fcdf00"/><stop offset="0.03" stop-color="#fcdf00"/><stop offset="0.22" stop-color="#341000" stop-opacity="0.5"/><stop offset="0.42" stop-color="#341000"/><stop offset="0.56" stop-color="#341000"/><stop offset="0.66" stop-color="#341000" stop-opacity="0.5"/><stop offset="0.8" stop-color="#341000" stop-opacity="0"/><stop offset="1" stop-color="#341000" stop-opacity="0"/></linearGradient><radialGradient id="Безымянный_градиент_88-2" cx="-61.73" cy="-85.96" r="1" gradientTransform="matrix(4.94, 1.78, -0.85, 4.12, 287.37, 467.12)" xlink:href="#Безымянный_градиент_88"/><radialGradient id="Безымянный_градиент_117-4" cx="-59.41" cy="-71.54" r="1" gradientTransform="translate(-2.25 2776.66) rotate(90) scale(46 0.87)" xlink:href="#Безымянный_градиент_117"/><radialGradient id="Безымянный_градиент_116-4" cx="-59.29" cy="-74.91" r="1" gradientTransform="translate(-27.91 6199.43) rotate(90) scale(103.83 1.18)" xlink:href="#Безымянный_градиент_116"/><linearGradient id="Безымянный_градиент_46" x1="-59.12" y1="-85.39" x2="-58.34" y2="-85.39" gradientTransform="matrix(-22.62, 103.03, 79.92, 29.15, 5623.07, 8582.96)" gradientUnits="userSpaceOnUse"><stop offset="0" stop-color="#663411"/><stop offset="0.52" stop-color="#663411"/><stop offset="1" stop-color="#fcdf00"/></linearGradient><linearGradient id="Безымянный_градиент_47" x1="-59.49" y1="-85.19" x2="-58.7" y2="-85.19" gradientTransform="matrix(21.84, 102.36, 79.4, -28.16, 8158.86, 3696.51)" gradientUnits="userSpaceOnUse"><stop offset="0" stop-color="#fcdf00"/><stop offset="0.04" stop-color="#fcdf00"/><stop offset="0.92" stop-color="#fcdf00"/><stop offset="1" stop-color="#663411"/></linearGradient><linearGradient id="Безымянный_градиент_48" x1="-59.1" y1="-83.8" x2="-58.32" y2="-83.8" gradientTransform="matrix(26.09, -88.03, -68.29, -33.63, -4059.85, -7940.42)" gradientUnits="userSpaceOnUse"><stop offset="0" stop-color="#663411"/><stop offset="0.29" stop-color="#663411"/><stop offset="0.81" stop-color="#fcdf00"/><stop offset="1" stop-color="#fcdf00"/></linearGradient><linearGradient id="Безымянный_градиент_49" x1="-60.01" y1="-83.25" x2="-59.23" y2="-83.25" gradientTransform="matrix(26.81, -28.46, -22.08, -34.56, -118.77, -4544.29)" gradientUnits="userSpaceOnUse"><stop offset="0" stop-color="#663411"/><stop offset="0.66" stop-color="#663411"/><stop offset="0.69" stop-color="#fcdf00"/><stop offset="1" stop-color="#fcdf00"/></linearGradient><linearGradient id="Безымянный_градиент_72-3" x1="-59.36" y1="-85.08" x2="-58.58" y2="-85.08" gradientTransform="matrix(0, 91.54, 71.01, 0, 6148.8, 5440.9)" xlink:href="#Безымянный_градиент_72"/><linearGradient id="Безымянный_градиент_51" x1="-59.49" y1="-85.23" x2="-58.71" y2="-85.23" gradientTransform="matrix(20.88, 103.05, 79.94, -26.92, 8163.02, 3841.31)" gradientUnits="userSpaceOnUse"><stop offset="0" stop-color="#341000"/><stop offset="0" stop-color="#341000"/><stop offset="0.05" stop-color="#341000" stop-opacity="0"/><stop offset="0.16" stop-color="#341000" stop-opacity="0.2"/><stop offset="0.34" stop-color="#341000" stop-opacity="0.5"/><stop offset="0.58" stop-color="#341000" stop-opacity="0.2"/><stop offset="0.77" stop-color="#341000" stop-opacity="0.5"/><stop offset="0.87" stop-color="#341000" stop-opacity="0"/><stop offset="0.95" stop-color="#341000"/><stop offset="0.99" stop-color="#341000" stop-opacity="0"/><stop offset="1" stop-color="#341000" stop-opacity="0"/></linearGradient><radialGradient id="Безымянный_градиент_88-3" cx="-62.24" cy="-86.24" r="1" gradientTransform="matrix(4.07, 0.94, -0.59, 4.44, 306.58, 445.05)" xlink:href="#Безымянный_градиент_88"/><radialGradient id="Безымянный_градиент_53" cx="-60.55" cy="-83.77" r="1" gradientTransform="matrix(8.44, 0, 0, -11.16, 659.49, -919.67)" gradientUnits="userSpaceOnUse"><stop offset="0" stop-color="#fff" stop-opacity="0.85"/><stop offset="0.35" stop-color="#fff" stop-opacity="0.5"/><stop offset="1" stop-color="#fff" stop-opacity="0"/></radialGradient><radialGradient id="Безымянный_градиент_112" cx="-60.51" cy="-85.52" r="1" gradientTransform="translate(675.85 999.67) scale(8.7 11.5)" gradientUnits="userSpaceOnUse"><stop offset="0" stop-color="#341000"/><stop offset="0.54" stop-color="#341000" stop-opacity="0.5"/><stop offset="1" stop-color="#341000" stop-opacity="0"/></radialGradient><linearGradient id="Безымянный_градиент_55" x1="-61.32" y1="-85.43" x2="-60.56" y2="-85.43" gradientTransform="matrix(23.12, 0, 0, -29.8, 1515.87, -2541.27)" gradientUnits="userSpaceOnUse"><stop offset="0" stop-color="#fcdf00"/><stop offset="0.01" stop-color="#fcdf00"/><stop offset="0.17" stop-color="#341000" stop-opacity="0.5"/><stop offset="0.42" stop-color="#341000"/><stop offset="0.58" stop-color="#341000"/><stop offset="0.73" stop-color="#341000" stop-opacity="0.5"/><stop offset="0.94" stop-color="#341000" stop-opacity="0"/><stop offset="1" stop-color="#341000" stop-opacity="0"/></linearGradient><radialGradient id="Безымянный_градиент_91-2" cx="-60.63" cy="-86.33" r="1" gradientTransform="translate(589.23 596.65) scale(7.96 5.9)" xlink:href="#Безымянный_градиент_91"/><radialGradient id="Безымянный_градиент_116-5" cx="-59.29" cy="-68.75" r="1" gradientTransform="translate(59.39 6095.96) rotate(90) scale(102.09 0.72)" xlink:href="#Безымянный_градиент_116"/><radialGradient id="Безымянный_градиент_117-5" cx="-59.35" cy="-97.81" r="1" gradientTransform="matrix(0, 62.95, 0.87, 0, 194.19, 3778.17)" xlink:href="#Безымянный_градиент_117"/><linearGradient id="Безымянный_градиент_59" x1="-60.03" y1="-83.36" x2="-59.28" y2="-83.36" gradientTransform="matrix(44.38, -42.49, -32.96, -57.21, 115.2, -7234.48)" gradientUnits="userSpaceOnUse"><stop offset="0" stop-color="#fcdf00"/><stop offset="0.38" stop-color="#fcdf00"/><stop offset="0.41" stop-color="#fcdf00"/><stop offset="0.81" stop-color="#fcdf00"/><stop offset="1" stop-color="#fcdf00"/></linearGradient><linearGradient id="Безымянный_градиент_60" x1="-59.58" y1="-85.44" x2="-58.8" y2="-85.44" gradientTransform="matrix(24.23, 101.95, 79.09, -31.23, 8371.61, 3413.14)" gradientUnits="userSpaceOnUse"><stop offset="0" stop-color="#fcdf00"/><stop offset="0.03" stop-color="#fcdf00"/><stop offset="0.92" stop-color="#fcdf00"/><stop offset="0.98" stop-color="#663411"/><stop offset="1" stop-color="#663411"/></linearGradient><linearGradient id="Безымянный_градиент_61" x1="-63.21" y1="-80.81" x2="-62.42" y2="-80.81" gradientTransform="matrix(12.76, -9.47, -7.35, -16.45, 410.32, -1887.45)" gradientUnits="userSpaceOnUse"><stop offset="0" stop-color="#663411"/><stop offset="0.39" stop-color="#663411"/><stop offset="0.43" stop-color="#fcdf00"/><stop offset="1" stop-color="#fcdf00"/></linearGradient><linearGradient id="Безымянный_градиент_62" x1="-59.72" y1="-83.01" x2="-58.94" y2="-83.01" gradientTransform="matrix(24.99, -49.85, -38.67, -32.21, -1530.89, -5607.52)" gradientUnits="userSpaceOnUse"><stop offset="0" stop-color="#663411"/><stop offset="0.13" stop-color="#663411"/><stop offset="0.56" stop-color="#fcdf00"/><stop offset="1" stop-color="#fcdf00"/></linearGradient><linearGradient id="Безымянный_градиент_63" x1="-58.95" y1="-86.33" x2="-58.17" y2="-86.33" gradientTransform="matrix(-12.95, 58.98, 45.75, 16.69, 3384.53, 4918.74)" gradientUnits="userSpaceOnUse"><stop offset="0" stop-color="#663411"/><stop offset="0.56" stop-color="#663411"/><stop offset="1" stop-color="#fcdf00"/></linearGradient><linearGradient id="Безымянный_градиент_64" x1="-59.71" y1="-85.76" x2="-58.92" y2="-85.76" gradientTransform="matrix(24.9, 101.32, 78.6, -32.1, 8488.68, 3306.95)" gradientUnits="userSpaceOnUse"><stop offset="0" stop-color="#fcdf00"/><stop offset="0.04" stop-color="#fcdf00"/><stop offset="0.91" stop-color="#fcdf00"/><stop offset="0.96" stop-color="#663411"/><stop offset="1" stop-color="#663411"/></linearGradient><linearGradient id="Безымянный_градиент_65" x1="-58.81" y1="-84.84" x2="-58.02" y2="-84.84" gradientTransform="matrix(0, -97.37, -75.54, 0, -6158.05, -5640.6)" gradientUnits="userSpaceOnUse"><stop offset="0" stop-color="#663411"/><stop offset="0.01" stop-color="#663411"/><stop offset="0.06" stop-color="#663411"/><stop offset="0.87" stop-color="#663411"/><stop offset="1" stop-color="#663411"/></linearGradient><linearGradient id="Безымянный_градиент_66" x1="-59.46" y1="-84.13" x2="-58.69" y2="-84.13" gradientTransform="matrix(110.07, -122.05, -94.68, -141.89, -1226.86, -19098.9)" gradientUnits="userSpaceOnUse"><stop offset="0" stop-color="#663411"/><stop offset="0.31" stop-color="#663411"/><stop offset="0.36" stop-color="#fcdf00"/><stop offset="0.86" stop-color="#fcdf00"/><stop offset="0.92" stop-color="#663411"/><stop offset="1" stop-color="#663411"/></linearGradient><linearGradient id="Безымянный_градиент_67" x1="-59.39" y1="-85.48" x2="-58.61" y2="-85.48" gradientTransform="matrix(0, 83.37, 64.67, 0, 5711.35, 4961.25)" gradientUnits="userSpaceOnUse"><stop offset="0" stop-color="#fcdf00"/><stop offset="0.02" stop-color="#fcdf00"/><stop offset="0.09" stop-color="#fccf00" stop-opacity="0.8"/><stop offset="0.32" stop-color="#fcc100" stop-opacity="0.5"/><stop offset="0.44" stop-color="#fccf00" stop-opacity="0.2"/><stop offset="0.61" stop-color="#fcc100" stop-opacity="0.5"/><stop offset="0.92" stop-color="#fccf00" stop-opacity="0.5"/><stop offset="0.99" stop-color="#fcde00" stop-opacity="0.98"/><stop offset="0.99" stop-color="#fcdf00"/><stop offset="1" stop-color="#fcdf00"/></linearGradient><linearGradient id="Безымянный_градиент_68" x1="-59.44" y1="-85.51" x2="-58.65" y2="-85.51" gradientTransform="matrix(0, 75, 58.18, 0, 5161.48, 4474.25)" gradientUnits="userSpaceOnUse"><stop offset="0" stop-color="#341000" stop-opacity="0"/><stop offset="0.02" stop-color="#341000" stop-opacity="0"/><stop offset="0.14" stop-color="#341000" stop-opacity="0.2"/><stop offset="0.34" stop-color="#341000" stop-opacity="0.5"/><stop offset="0.63" stop-color="#341000" stop-opacity="0.2"/><stop offset="0.86" stop-color="#341000" stop-opacity="0.5"/><stop offset="0.99" stop-color="#341000" stop-opacity="0"/><stop offset="1" stop-color="#341000" stop-opacity="0"/></linearGradient><linearGradient id="Безымянный_градиент_72-4" x1="-59.89" y1="-85.95" x2="-59.11" y2="-85.95" gradientTransform="matrix(23.9, 82.68, 64.14, -30.81, 7204.76, 2319.56)" xlink:href="#Безымянный_градиент_72"/><linearGradient id="Безымянный_градиент_70" x1="-59.78" y1="-85.72" x2="-59" y2="-85.72" gradientTransform="matrix(31.62, 97.79, 75.86, -40.76, 8651.69, 2353.1)" gradientUnits="userSpaceOnUse"><stop offset="0" stop-color="#341000" stop-opacity="0.2"/><stop offset="0.06" stop-color="#341000" stop-opacity="0.2"/><stop offset="0.34" stop-color="#341000" stop-opacity="0.5"/><stop offset="0.63" stop-color="#341000" stop-opacity="0.2"/><stop offset="0.86" stop-color="#341000" stop-opacity="0.5"/><stop offset="0.99" stop-color="#341000" stop-opacity="0"/><stop offset="1" stop-color="#341000" stop-opacity="0"/></linearGradient><linearGradient id="Безымянный_градиент_71" x1="-58.92" y1="-86" x2="-58.14" y2="-86" gradientTransform="matrix(-23.36, 88.52, 68.67, 30.11, 4790.13, 7816.01)" gradientUnits="userSpaceOnUse"><stop offset="0" stop-color="#341000" stop-opacity="0.2"/><stop offset="0.05" stop-color="#341000" stop-opacity="0.2"/><stop offset="0.34" stop-color="#341000" stop-opacity="0.5"/><stop offset="0.63" stop-color="#341000" stop-opacity="0.2"/><stop offset="0.86" stop-color="#341000" stop-opacity="0.5"/><stop offset="0.99" stop-color="#341000" stop-opacity="0"/><stop offset="1" stop-color="#341000" stop-opacity="0"/></linearGradient><linearGradient id="Безымянный_градиент_72-5" x1="-58.87" y1="-85.97" x2="-58.09" y2="-85.97" gradientTransform="matrix(-26.42, 88.31, 68.51, 34.05, 4594.22, 8136.48)" xlink:href="#Безымянный_градиент_72"/><radialGradient id="Безымянный_градиент_73" cx="-60.74" cy="-85.67" r="1" gradientTransform="translate(658.48 851.99) scale(7.4 9.79)" gradientUnits="userSpaceOnUse"><stop offset="0" stop-color="#fff" stop-opacity="0.85"/><stop offset="0.38" stop-color="#fff" stop-opacity="0.5"/><stop offset="1" stop-color="#fff" stop-opacity="0"/></radialGradient><radialGradient id="Безымянный_градиент_88-4" cx="-60.18" cy="-85.3" r="1" gradientTransform="translate(884.17 1355.66) scale(11.58 15.32)" xlink:href="#Безымянный_градиент_88"/><radialGradient id="Безымянный_градиент_112-2" cx="-60.52" cy="-85.52" r="1" gradientTransform="translate(730.28 985.63) scale(8.61 11.39)" xlink:href="#Безымянный_градиент_112"/><radialGradient id="Безымянный_градиент_112-3" cx="-60.21" cy="-85.32" r="1" gradientTransform="translate(866.87 1320.51) scale(11.28 14.93)" xlink:href="#Безымянный_градиент_112"/><linearGradient id="Безымянный_градиент_77" x1="-54.34" y1="-81.73" x2="-53.57" y2="-81.73" gradientTransform="matrix(-9.19, -15.02, -11.65, 11.84, -1257.87, 239.62)" gradientUnits="userSpaceOnUse"><stop offset="0" stop-color="#fcdf00"/><stop offset="0.01" stop-color="#fcdf00"/><stop offset="0.22" stop-color="#341000" stop-opacity="0"/><stop offset="0.32" stop-color="#341000"/><stop offset="0.7" stop-color="#341000" stop-opacity="0.5"/><stop offset="0.88" stop-color="#341000" stop-opacity="0"/><stop offset="1" stop-color="#341000" stop-opacity="0"/></linearGradient><radialGradient id="Безымянный_градиент_78" cx="-63.07" cy="-87.19" r="1" gradientTransform="translate(390.79 388.61) scale(2.95 3.91)" gradientUnits="userSpaceOnUse"><stop offset="0" stop-color="#fcffff" stop-opacity="0.85"/><stop offset="0.07" stop-color="#fcffff" stop-opacity="0.85"/><stop offset="1" stop-color="#e0bf03" stop-opacity="0"/></radialGradient><linearGradient id="Безымянный_градиент_79" x1="-62.3" y1="-85.43" x2="-61.54" y2="-85.43" gradientTransform="matrix(23.31, 0, 0, -30.05, 1626.08, -2562.26)" gradientUnits="userSpaceOnUse"><stop offset="0" stop-color="#fcdf00"/><stop offset="0.01" stop-color="#fcdf00"/><stop offset="0.17" stop-color="#341000" stop-opacity="0.5"/><stop offset="0.42" stop-color="#341000"/><stop offset="0.65" stop-color="#341000"/><stop offset="0.79" stop-color="#341000" stop-opacity="0.5"/><stop offset="0.94" stop-color="#341000" stop-opacity="0"/><stop offset="1" stop-color="#341000" stop-opacity="0"/></linearGradient><radialGradient id="Безымянный_градиент_80" cx="-61.47" cy="-86.54" r="1" gradientTransform="matrix(5.38, 0.97, -0.42, 4.08, 474.53, 416.07)" gradientUnits="userSpaceOnUse"><stop offset="0" stop-color="#fff" stop-opacity="0.85"/><stop offset="0.62" stop-color="#fff" stop-opacity="0.5"/><stop offset="1" stop-color="#fff" stop-opacity="0"/></radialGradient><linearGradient id="Безымянный_градиент_81" x1="-61.69" y1="-89.23" x2="-60.9" y2="-89.23" gradientTransform="matrix(4.9, 17.91, 13.89, -6.31, 1726, 547.95)" gradientUnits="userSpaceOnUse"><stop offset="0" stop-color="#341000"/><stop offset="0.18" stop-color="#341000" stop-opacity="0.5"/><stop offset="0.48" stop-color="#341000" stop-opacity="0"/><stop offset="1" stop-color="#341000" stop-opacity="0"/></linearGradient><radialGradient id="Безымянный_градиент_82" cx="-60.76" cy="-86.41" r="1" gradientTransform="translate(625.17 575.9) scale(7.29 5.65)" gradientUnits="userSpaceOnUse"><stop offset="0" stop-color="#fff" stop-opacity="0.85"/><stop offset="0.42" stop-color="#fff" stop-opacity="0.85"/><stop offset="1" stop-color="#fff" stop-opacity="0"/></radialGradient><linearGradient id="Безымянный_градиент_83" x1="-58.76" y1="-89.69" x2="-57.97" y2="-89.69" gradientTransform="matrix(-5.68, 20.83, 16.16, 7.33, 1325.82, 1931.95)" gradientUnits="userSpaceOnUse"><stop offset="0" stop-color="#341000"/><stop offset="0.18" stop-color="#341000" stop-opacity="0.5"/><stop offset="0.4" stop-color="#341000" stop-opacity="0"/><stop offset="1" stop-color="#341000" stop-opacity="0"/></linearGradient><linearGradient id="Безымянный_градиент_84" x1="-62.85" y1="-86.68" x2="-62.08" y2="-86.68" gradientTransform="matrix(26.26, 0, 0, -33.86, 1900.43, -2884.71)" gradientUnits="userSpaceOnUse"><stop offset="0" stop-color="#341000"/><stop offset="0.15" stop-color="#341000" stop-opacity="0.5"/><stop offset="0.4" stop-color="#341000" stop-opacity="0"/><stop offset="0.82" stop-color="#341000" stop-opacity="0"/><stop offset="0.99" stop-color="#341000"/><stop offset="1" stop-color="#341000"/></linearGradient><linearGradient id="Безымянный_градиент_85" x1="-51.9" y1="-81.02" x2="-51.13" y2="-81.02" gradientTransform="matrix(-10.34, -11.9, -9.23, 13.34, -992.79, 550.75)" gradientUnits="userSpaceOnUse"><stop offset="0" stop-color="#fcdf00"/><stop offset="0.06" stop-color="#fcdf00"/><stop offset="0.19" stop-color="#341000" stop-opacity="0"/><stop offset="0.4" stop-color="#341000"/><stop offset="0.79" stop-color="#341000" stop-opacity="0.5"/><stop offset="0.98" stop-color="#341000" stop-opacity="0"/><stop offset="1" stop-color="#341000" stop-opacity="0"/></linearGradient><linearGradient id="Безымянный_градиент_86" x1="-48.57" y1="-75.56" x2="-47.8" y2="-75.56" gradientTransform="matrix(-3.79, -7.75, -6.01, 4.89, -391.84, 79.53)" gradientUnits="userSpaceOnUse"><stop offset="0" stop-color="#fcdf00"/><stop offset="0" stop-color="#fcdf00"/><stop offset="0.16" stop-color="#341000" stop-opacity="0"/><stop offset="0.33" stop-color="#341000"/><stop offset="0.7" stop-color="#341000" stop-opacity="0.5"/><stop offset="0.99" stop-color="#341000" stop-opacity="0"/><stop offset="1" stop-color="#341000" stop-opacity="0"/></linearGradient><radialGradient id="Безымянный_градиент_87-2" cx="-61.56" cy="-86.89" r="1" gradientTransform="translate(536.06 472.41) scale(4.84 4.44)" xlink:href="#Безымянный_градиент_87"/><radialGradient id="Безымянный_градиент_88-5" cx="-61" cy="-85.24" r="1" gradientTransform="matrix(6.94, 3.01, -1.88, 7.57, 488.01, 908.95)" xlink:href="#Безымянный_градиент_88"/><radialGradient id="Безымянный_градиент_112-4" cx="-60.44" cy="-83.84" r="1" gradientTransform="matrix(9.2, 0, 0, -12.17, 778.52, -938.8)" xlink:href="#Безымянный_градиент_112"/><radialGradient id="Безымянный_градиент_90" cx="-66.75" cy="-87.5" r="1" gradientTransform="matrix(1.56, 0.09, -0.11, 3.24, 355.79, 296.45)" gradientUnits="userSpaceOnUse"><stop offset="0" stop-color="#fff"/><stop offset="0.68" stop-color="#fff" stop-opacity="0.5"/><stop offset="1" stop-color="#fff" stop-opacity="0"/></radialGradient><radialGradient id="Безымянный_градиент_91-3" cx="-61.29" cy="-82.61" r="1" gradientTransform="matrix(5.45, 0, 0, -4.84, 614.58, -312.65)" xlink:href="#Безымянный_градиент_91"/><radialGradient id="Безымянный_градиент_92" cx="-60.2" cy="-87.19" r="1" gradientTransform="matrix(5.15, -4.03, 2.46, 5.5, 784.61, 245.14)" gradientUnits="userSpaceOnUse"><stop offset="0" stop-color="#fff" stop-opacity="0.85"/><stop offset="0.27" stop-color="#fff" stop-opacity="0.5"/><stop offset="1" stop-color="#fff" stop-opacity="0"/></radialGradient><linearGradient id="Безымянный_градиент_93" x1="-62.8" y1="-86.72" x2="-62.03" y2="-86.72" gradientTransform="matrix(26.62, 0, 0, -34.32, 1921.57, -2923.68)" gradientUnits="userSpaceOnUse"><stop offset="0" stop-color="#fff" stop-opacity="0.85"/><stop offset="0.14" stop-color="#fff" stop-opacity="0.5"/><stop offset="0.34" stop-color="#fff" stop-opacity="0"/><stop offset="0.75" stop-color="#fff" stop-opacity="0"/><stop offset="0.96" stop-color="#fff" stop-opacity="0.5"/><stop offset="1" stop-color="#fff" stop-opacity="0.85"/><stop offset="1" stop-color="#fff" stop-opacity="0.85"/></linearGradient><radialGradient id="Безымянный_градиент_116-6" cx="-59.24" cy="-96.7" r="1" gradientTransform="matrix(0, 196.96, 0.95, 0, 276.73, 11712.08)" xlink:href="#Безымянный_градиент_116"/><radialGradient id="Безымянный_градиент_117-6" cx="-59.43" cy="-93.75" r="1" gradientTransform="matrix(0, 40.77, 1.26, 0, 302.85, 2468.17)" xlink:href="#Безымянный_градиент_117"/><radialGradient id="Безымянный_градиент_117-7" cx="-59.87" cy="-67.46" r="1" gradientTransform="matrix(16.85, 0, 0, -0.58, 1268.82, 12.08)" xlink:href="#Безымянный_градиент_117"/><radialGradient id="Безымянный_градиент_117-8" cx="-59.39" cy="-94.9" r="1" gradientTransform="matrix(19.85, 69, 0.73, -0.37, 1519.55, 4105.52)" xlink:href="#Безымянный_градиент_117"/><radialGradient id="Безымянный_градиент_117-9" cx="-59.28" cy="-65.28" r="1" gradientTransform="matrix(-12.55, 47.72, -0.65, -0.3, -536.67, 2856.31)" xlink:href="#Безымянный_градиент_117"/><radialGradient id="Безымянный_градиент_116-7" cx="-59.25" cy="-104.18" r="1" gradientTransform="matrix(-18.4, 69.48, 0.64, 0.3, -775.14, 4200.18)" xlink:href="#Безымянный_градиент_116"/><radialGradient id="Безымянный_градиент_116-8" cx="-59.29" cy="-74.88" r="1" gradientTransform="matrix(38.24, 135.12, -0.78, 0.39, 2481.01, 8086.15)" xlink:href="#Безымянный_градиент_116"/><linearGradient id="Безымянный_градиент_101" x1="-59.32" y1="-88.25" x2="-58.53" y2="-88.25" gradientTransform="matrix(-4.5, 45.15, 35.02, 5.8, 3169.13, 3236.46)" gradientUnits="userSpaceOnUse"><stop offset="0" stop-color="#fcdf00"/><stop offset="0.11" stop-color="#fcdf00"/><stop offset="0.89" stop-color="#fcdf00"/><stop offset="1" stop-color="#663411"/></linearGradient><linearGradient id="Безымянный_градиент_111" x1="-59.31" y1="-83.25" x2="-58.53" y2="-83.25" gradientTransform="matrix(27.48, -104.35, -80.95, -35.43, -4791.5, -9053.79)" gradientUnits="userSpaceOnUse"><stop offset="0" stop-color="#663411"/><stop offset="0.23" stop-color="#663411"/><stop offset="0.89" stop-color="#fcdf00"/><stop offset="1" stop-color="#fcdf00"/></linearGradient><linearGradient id="Безымянный_градиент_103" x1="-59.21" y1="-83.99" x2="-58.43" y2="-83.99" gradientTransform="matrix(75.66, -226.49, -175.7, -97.53, -9960.09, -21437.89)" gradientUnits="userSpaceOnUse"><stop offset="0" stop-color="#fcdf00"/><stop offset="0.46" stop-color="#fcdf00"/><stop offset="0.49" stop-color="#663411"/><stop offset="0.66" stop-color="#663411"/><stop offset="0.68" stop-color="#fcdf00"/><stop offset="1" stop-color="#fcdf00"/></linearGradient><linearGradient id="Безымянный_градиент_104" x1="-59.42" y1="-83.3" x2="-58.64" y2="-83.3" gradientTransform="matrix(34.49, -102.24, -79.31, -44.45, -4244.23, -9694.91)" gradientUnits="userSpaceOnUse"><stop offset="0" stop-color="#fcdf00"/><stop offset="0.22" stop-color="#fcdf00"/><stop offset="0.81" stop-color="#663411"/><stop offset="1" stop-color="#663411"/></linearGradient><linearGradient id="Безымянный_градиент_105" x1="-54.47" y1="-84.01" x2="-53.71" y2="-84.01" gradientTransform="matrix(-28, 0, 0, 36.1, -1158.15, 3037.1)" gradientUnits="userSpaceOnUse"><stop offset="0" stop-color="#fcdf00"/><stop offset="0.16" stop-color="#fcdf00"/><stop offset="0.7" stop-color="#663411"/><stop offset="1" stop-color="#663411"/></linearGradient><linearGradient id="Безымянный_градиент_106" x1="-59.91" y1="-86.42" x2="-59.13" y2="-86.42" gradientTransform="matrix(0, 38.1, 29.56, 0, 2901.53, 2332.23)" gradientUnits="userSpaceOnUse"><stop offset="0" stop-color="#fcdf00"/><stop offset="0.02" stop-color="#fcdf00"/><stop offset="0.33" stop-color="#fccf00" stop-opacity="0.8"/><stop offset="0.63" stop-color="#fccf00" stop-opacity="0.2"/><stop offset="0.87" stop-color="#fccf00" stop-opacity="0.5"/><stop offset="0.99" stop-color="#fcde00" stop-opacity="0.98"/><stop offset="0.99" stop-color="#fcdf00"/><stop offset="1" stop-color="#fcdf00"/></linearGradient><linearGradient id="Безымянный_градиент_107" x1="-58.97" y1="-80.81" x2="-58.18" y2="-80.81" gradientTransform="matrix(5.31, -42.82, -33.22, -6.85, -2021.81, -2998.97)" gradientUnits="userSpaceOnUse"><stop offset="0" stop-color="#341000" stop-opacity="0"/><stop offset="0.02" stop-color="#341000" stop-opacity="0"/><stop offset="0.14" stop-color="#341000" stop-opacity="0.2"/><stop offset="0.34" stop-color="#341000" stop-opacity="0.5"/><stop offset="0.63" stop-color="#341000" stop-opacity="0.2"/><stop offset="0.86" stop-color="#341000" stop-opacity="0.5"/><stop offset="0.95" stop-color="#341000" stop-opacity="0"/><stop offset="1" stop-color="#341000" stop-opacity="0"/></linearGradient><linearGradient id="Безымянный_градиент_108" x1="-74.69" y1="-65.27" x2="-73.92" y2="-65.27" gradientTransform="matrix(3.88, -4.52, -3.51, -5, 415.26, -617.7)" gradientUnits="userSpaceOnUse"><stop offset="0" stop-color="#fcdf00" stop-opacity="0"/><stop offset="0.73" stop-color="#fcdf00" stop-opacity="0"/><stop offset="1" stop-color="#663411"/></linearGradient><radialGradient id="Безымянный_градиент_109" cx="-63.06" cy="-86.44" r="1" gradientTransform="matrix(3.24, 1.04, -0.6, 3.29, 497.14, 395.85)" gradientUnits="userSpaceOnUse"><stop offset="0" stop-color="#fff" stop-opacity="0.85"/><stop offset="0.45" stop-color="#fff" stop-opacity="0.5"/><stop offset="1" stop-color="#fff" stop-opacity="0"/></radialGradient><linearGradient id="Безымянный_градиент_110" x1="-63.81" y1="-86.56" x2="-63.04" y2="-86.56" gradientTransform="matrix(26.69, 0, 0, -34.41, 2041.68, -2931.6)" gradientUnits="userSpaceOnUse"><stop offset="0" stop-color="#fcdf00"/><stop offset="0.03" stop-color="#fcdf00"/><stop offset="0.23" stop-color="#341000" stop-opacity="0.5"/><stop offset="0.42" stop-color="#341000"/><stop offset="0.56" stop-color="#341000"/><stop offset="0.66" stop-color="#341000" stop-opacity="0.5"/><stop offset="0.8" stop-color="#341000" stop-opacity="0"/><stop offset="1" stop-color="#341000" stop-opacity="0"/></linearGradient><linearGradient id="Безымянный_градиент_111-2" x1="-59.31" y1="-83.17" x2="-58.54" y2="-83.17" gradientTransform="matrix(27.48, -104.35, -80.95, -35.43, -4764.33, -9041.9)" xlink:href="#Безымянный_градиент_111"/><radialGradient id="Безымянный_градиент_112-5" cx="-60.54" cy="-85.35" r="1" gradientTransform="matrix(9.27, 2.66, -1.49, 9.05, 751.73, 1015.41)" xlink:href="#Безымянный_градиент_112"/><radialGradient id="Безымянный_градиент_113" cx="-60.78" cy="-85.69" r="1" gradientTransform="translate(752.89 896.32) scale(7.22 9.55)" gradientUnits="userSpaceOnUse"><stop offset="0" stop-color="#fff" stop-opacity="0.85"/><stop offset="0.34" stop-color="#fff" stop-opacity="0.5"/><stop offset="1" stop-color="#fff" stop-opacity="0"/></radialGradient><radialGradient id="Безымянный_градиент_114" cx="-61.36" cy="-86.07" r="1" gradientTransform="translate(676.46 614.81) scale(5.29 7)" gradientUnits="userSpaceOnUse"><stop offset="0" stop-color="#fff" stop-opacity="0.85"/><stop offset="0.49" stop-color="#fff" stop-opacity="0.5"/><stop offset="1" stop-color="#fff" stop-opacity="0"/></radialGradient><linearGradient id="Безымянный_градиент_115" x1="-54.81" y1="-79.22" x2="-54.03" y2="-79.22" gradientTransform="matrix(-9.91, -20.19, -15.66, 12.78, -1427.9, -75.72)" gradientUnits="userSpaceOnUse"><stop offset="0" stop-color="#fcdf00"/><stop offset="0.04" stop-color="#fcdf00"/><stop offset="0.16" stop-color="#341000" stop-opacity="0"/><stop offset="0.47" stop-color="#341000"/><stop offset="0.87" stop-color="#341000" stop-opacity="0.5"/><stop offset="1" stop-color="#341000" stop-opacity="0"/></linearGradient><radialGradient id="Безымянный_градиент_116-9" cx="-59.36" cy="-72.79" r="1" gradientTransform="translate(279.08 3516.04) rotate(90) scale(58.17 0.97)" xlink:href="#Безымянный_градиент_116"/><radialGradient id="Безымянный_градиент_117-10" cx="-59.61" cy="-68.91" r="1" gradientTransform="translate(299.29 1468.33) rotate(90) scale(23.59 0.73)" xlink:href="#Безымянный_градиент_117"/><linearGradient id="Безымянный_градиент_118" x1="-59.63" y1="-83.05" x2="-58.85" y2="-83.05" gradientTransform="matrix(38.38, -97.84, -75.9, -49.47, -3628.53, -9860.15)" gradientUnits="userSpaceOnUse"><stop offset="0" stop-color="#fcdf00"/><stop offset="0.11" stop-color="#fcdf00"/><stop offset="0.86" stop-color="#663411"/><stop offset="1" stop-color="#663411"/></linearGradient><linearGradient id="Безымянный_градиент_119" x1="-59.69" y1="-83" x2="-58.91" y2="-83" gradientTransform="matrix(38.65, -92.7, -71.91, -49.82, -3274.34, -9588.37)" gradientUnits="userSpaceOnUse"><stop offset="0" stop-color="#663411"/><stop offset="0.19" stop-color="#663411"/><stop offset="0.85" stop-color="#fcdf00"/><stop offset="1" stop-color="#fcdf00"/></linearGradient><radialGradient id="Безымянный_градиент_122" cx="-60.19" cy="-85.31" r="1" gradientTransform="translate(1081.37 1375.86) scale(11.45 15.15)" gradientUnits="userSpaceOnUse"><stop offset="0" stop-color="#fff" stop-opacity="0.85"/><stop offset="0.4" stop-color="#fff" stop-opacity="0.5"/><stop offset="1" stop-color="#fff" stop-opacity="0"/></radialGradient><radialGradient id="Безымянный_градиент_121" cx="-60.25" cy="-85.35" r="1" gradientTransform="translate(1069.58 1230.34) scale(10.81 14.3)" gradientUnits="userSpaceOnUse"><stop offset="0" stop-color="#341000"/><stop offset="0.49" stop-color="#341000" stop-opacity="0.5"/><stop offset="1" stop-color="#341000" stop-opacity="0"/></radialGradient><radialGradient id="Безымянный_градиент_122-2" cx="-60.22" cy="-85.33" r="1" gradientTransform="translate(1085.39 1261.86) scale(11.1 14.68)" xlink:href="#Безымянный_градиент_122"/><radialGradient id="Безымянный_градиент_123" cx="-60.4" cy="-85.15" r="1" gradientTransform="matrix(10.35, 3.88, -2.24, 10.47, 822.94, 1208.02)" gradientUnits="userSpaceOnUse"><stop offset="0" stop-color="#341000"/><stop offset="0.44" stop-color="#341000" stop-opacity="0.5"/><stop offset="1" stop-color="#341000" stop-opacity="0"/></radialGradient></defs><title>ELdrago 2</title><g id="Слой_2" data-name="Слой 2"><g id="Слой_1-2" data-name="Слой 1"><path class="cls-1" d="M31.59,86.07c-4.59,0-7.32-.12-9.72-.23l-2.55-.11-3.27-.12c-2.45-.1-5-.21-7.23-.21-1,0-2,.08-3,.16s-2.12.17-3.24.17-1.3-.17-1.3-.27.22-.28.55-.28a6.4,6.4,0,0,0,1.26-.11C6,84.5,7,81.68,7.16,73.46c.09-4.29.15-10,.15-19.9V34c0-17.33,0-20.45-.15-24C7,6.74,6.47,3.33,3.44,2.73A10.9,10.9,0,0,0,1.09,2.5c-.87,0-1-.15-1-.28s.34-.36,1.3-.36c2,0,4.2,0,9.5.36h.05c2,0,17.32,0,19.19-.13a16.86,16.86,0,0,0,4.21-.69l.42-.25a1.1,1.1,0,0,1,.4-.2.06.06,0,0,1,.06,0,2.21,2.21,0,0,1,0,.9c0,.28-.09.58-.16,1a29.59,29.59,0,0,0-.52,4.27c-.06,1.2-.12,2.23-.21,3.79,0,.6-.07,1.29-.12,2.1-.09,1.49-.29,1.5-.3,1.5s-.21-.37-.29-1.39c0-.29-.05-.54-.07-.81,0-.45-.07-1-.18-1.75-.43-2.93-2.76-3.72-6.93-4.16-1.44-.11-10.59-.33-11.53-.33-.53,0-.57,0-.57.83V38.34c0,.7,0,.72.48.72,2.7,0,11.67,0,13.46-.22,2.76-.23,4.49-.46,5.08-1.81.07-.19.24-.63.38-.63s.13.42.13.61a10.49,10.49,0,0,1-.16,1.37c-.14.91-.36,2.3-.51,4.51s-.23,3.84-.27,5c0,.56,0,1-.07,1.53-.08,1.35-.25,1.5-.37,1.5s-.21-.35-.21-1.39a8.48,8.48,0,0,0-.17-2c-.48-2.5-3-3.74-5.08-4C24.7,43.17,16.39,43,14.76,43c-.44,0-.48,0-.48.72v9.89c0,1.06,0,2.84,0,4.89,0,5.25,0,12.44,0,14.12.17,5.06.63,7.05,2.81,8.16,1.31.71,3.33,1,7,1a25.34,25.34,0,0,0,8.16-1.11c2.58-1,3.81-2.28,4.31-7.05.19-1.33.36-1.62.47-1.62s0,0,0,0a3.78,3.78,0,0,1,.09,1.58v.14c-.44,4.73-.92,8.46-1.33,10.52-.32,1.56-.37,1.85-4.24,1.85"/><path class="cls-2" d="M32,80.72l-.18.06,1.52,2.5.1,0,0-.08L32,80.72"/><path class="cls-3" d="M30.48,41.41c1.61-1.41,3.21-3.52,3.21-5.07-.17,0-.34.44-.42.66-.59,1.34-2.36,1.56-5,1.78C26.29,39,16,39,14.87,39c-.3,0-.43,0-.47-.25l-.62,2.33c1.44,0,14-.09,16.7.32"/><path class="cls-4" d="M13.78,41.09l.66,2.06c.07-.12.22-.14.51-.14,1.43,0,9.75.22,12,.55,3,.45,4.7,2.22,5,4a8.91,8.91,0,0,1,.16,2c0,1,0,1.45.26,1.45.27-3.23-.15-7.09-1.95-9.6-2.72-.41-15.26-.32-16.7-.32"/><path class="cls-2" d="M30.48,41.41c1.8,2.51,2.22,6.37,1.95,9.6.16,0,.33-.23.42-1.56.08-1.55.08-3.11.33-6.56.25-3.66.67-5,.67-5.88,0-.23,0-.67-.16-.67,0,1.55-1.6,3.66-3.21,5.07"/><path class="cls-2" d="M35.87,84.23c.67-3.33,1.26-9.78,1.34-10.66s0-1.64-.15-1.67c-.53,7.48-2.3,9.61-3.59,11.41a26,26,0,0,1,2,2.18,2.91,2.91,0,0,0,.44-1.26"/><path class="cls-2" d="M32.08,4.65c1.76,2.7,1.83,6.15,1.77,9.91.09,0,.26-.22.34-1.56.17-2.89.25-4.22.34-5.89a39.06,39.06,0,0,1,.67-5.22c.07-.58.08-.91,0-1-.06.72-2.18,3-3.09,3.74"/><path class="cls-5" d="M6.83,3.43C4.92,2.21,3.13,2.19,0,2.19v0c0,.22.34.34,1.09.34a11.56,11.56,0,0,1,2.35.22C6.22,3.33,7,6.22,7.14,10c.17,3.56.17,6.67.17,24V53.56c0,9.89-.09,15.56-.17,19.89C7,81.79,6,84.46,3.11,85a6.4,6.4,0,0,1-1.26.11c-.34,0-.59.11-.59.33,2.58,0,4.5-.13,6.11-1.4a18.55,18.55,0,0,0,3.47-3.52V7.11a17.45,17.45,0,0,0-4-3.68"/><path class="cls-6" d="M15.25,83a10,10,0,0,1-4.41-2.46,18.55,18.55,0,0,1-3.47,3.52c-1.61,1.27-3.53,1.39-6.11,1.4h0c0,.22.42.33,1.34.33,2.19,0,4.2-.33,6.22-.33,3.28,0,7.14.22,10.5.33s6.05.33,12.27.33c2.47,0,3.4-.09,3.84-.63a26,26,0,0,0-2-2.18c-2.58.83-13.9,1.14-18.22-.32"/><path class="cls-7" d="M10.84,7.11a8,8,0,0,1,2.48-2.68C14.53,3.89,17,4,20.11,4c1.44,0,10.11.08,12,.62.91-.76,3-3,3.09-3.74a.08.08,0,0,0-.06,0c-.16,0-.42.22-.84.44a16.55,16.55,0,0,1-4.2.67c-1.93.11-18.65.11-19.23.11-5.3-.33-7.56-.33-9.5-.33C.39,1.78,0,2,0,2.19c3.13,0,4.92,0,6.83,1.24a17.45,17.45,0,0,1,4,3.68"/><path class="cls-8" d="M37.05,71.9c-.17,0-.34.44-.51,1.67-.5,4.77-1.76,6-4.28,7l-.37.13,1.58,2.61c1.29-1.8,3.06-3.93,3.59-11.41h0"/><path class="cls-9" d="M32.08,4.65C30.22,4.11,21.55,4,20.1,4a35.42,35.42,0,0,0-6.19.21l.68,1.91a.72.72,0,0,1,.28,0c.92,0,10.08.22,11.51.34,4.2.44,6.47,1.44,6.89,4.33.16,1.22.16,1.55.25,2.33.08,1.11.17,1.45.33,1.45.06-3.76,0-7.21-1.77-9.91"/><path class="cls-10" d="M31.89,80.7a26.09,26.09,0,0,1-7.78,1c-3.28,0-5.54-.23-7-1-2.19-1.11-2.61-3.11-2.78-8.12-.08-2.33,0-15.22,0-19V43.78a1.27,1.27,0,0,1,.08-.64l-.66-2,.62-2.33a3.26,3.26,0,0,1,0-.64v-31c0-.53,0-.78.15-.9l.08-.06-.68-1.91a2.92,2.92,0,0,0-.59.19,2.65,2.65,0,0,0-.56.36,11.57,11.57,0,0,0-1.92,2.32V80.53A10,10,0,0,0,15.25,83c4.32,1.47,15.64,1.15,18.22.32L31.89,80.7"/><path class="cls-11" d="M10.84,7.11a17.45,17.45,0,0,0-4-3.68C4.92,2.21,3.13,2.19,0,2.19v0c0,.22.34.34,1.09.34a11.56,11.56,0,0,1,2.35.22C6.22,3.33,7,6.22,7.14,10c.17,3.56.17,6.67.17,24V53.56c0,9.89-.09,15.56-.17,19.89,0,.56,0,1.09,0,1.6h3.74V7.11"/><path class="cls-12" d="M31.89,80.7a26.09,26.09,0,0,1-7.78,1c-3.28,0-5.54-.23-7-1-2.19-1.11-2.61-3.11-2.78-8.12-.08-2.33,0-15.22,0-19V43.78a1.27,1.27,0,0,1,.08-.64l-.66-2,.62-2.33a3.26,3.26,0,0,1,0-.64v-31c0-.11,0-.21,0-.3L13.08,4.56a2.35,2.35,0,0,0-.32.23,11.57,11.57,0,0,0-1.92,2.32V80.53A10,10,0,0,0,15.25,83c4.32,1.47,15.64,1.15,18.22.32L31.89,80.7"/><path class="cls-13" d="M10.84,7.11a8,8,0,0,1,2.48-2.68C14.53,3.89,17,4,20.11,4c1.44,0,10.11.08,12,.62.91-.76,3-3,3.09-3.74a.08.08,0,0,0-.06,0c-.16,0-.42.22-.84.44a16.55,16.55,0,0,1-4.2.67c-1.93.11-18.65.11-19.23.11-5.3-.33-7.56-.33-9.5-.33C.39,1.78,0,2,0,2.19c3.13,0,4.92,0,6.83,1.24a17.45,17.45,0,0,1,4,3.68"/><path class="cls-14" d="M30.48,41.41c1.8,2.51,2.22,6.37,1.95,9.6.16,0,.33-.23.42-1.56.08-1.55.08-3.11.33-6.56.25-3.66.67-5,.67-5.88,0-.23,0-.67-.16-.67,0,1.55-1.6,3.66-3.21,5.07"/><path class="cls-15" d="M13.78,41.09l.66,2.06c.07-.12.22-.14.51-.14.87,0,4.27.08,7.31.22V41.1c-3.87,0-7.72,0-8.48,0"/><path class="cls-16" d="M30.48,41.41c-1.28-.19-4.76-.27-8.22-.31v2.13c2,.09,3.81.2,4.71.33,3,.45,4.7,2.22,5,4a8.91,8.91,0,0,1,.16,2c0,1,0,1.45.26,1.45.27-3.23-.15-7.09-1.95-9.6"/><path class="cls-17" d="M20.1,4a35.42,35.42,0,0,0-6.19.21l.68,1.91a.72.72,0,0,1,.28,0c.92,0,10.08.22,11.51.34q.86.09,1.59.21V4.22C24.83,4.06,21,4,20.11,4"/><path class="cls-18" d="M32.08,4.65A24.92,24.92,0,0,0,28,4.22V6.66c3.19.54,4.93,1.62,5.3,4.12.16,1.22.16,1.55.25,2.33.08,1.11.17,1.45.33,1.45.06-3.76,0-7.21-1.77-9.91"/><path class="cls-19" d="M30.48,41.41c1.61-1.41,3.21-3.52,3.21-5.07-.17,0-.34.44-.42.66-.59,1.34-2.36,1.56-5,1.78C26.29,39,16,39,14.87,39c-.3,0-.43,0-.47-.25l-.62,2.33c1.44,0,14-.09,16.7.32"/><path class="cls-20" d="M32.08,4.65c1.76,2.7,1.83,6.15,1.77,9.91.09,0,.26-.22.34-1.56.17-2.89.25-4.22.34-5.89a39.06,39.06,0,0,1,.67-5.22c.07-.58.08-.91,0-1-.06.72-2.18,3-3.09,3.74"/><path class="cls-21" d="M35.17.91a.08.08,0,0,0-.06,0c-.16,0-.42.22-.84.44a15.52,15.52,0,0,1-3.8.64l1.37,2.62.24.06c.91-.76,3-3,3.09-3.74"/><path class="cls-22" d="M10.84,7.11a17.45,17.45,0,0,0-4-3.68C4.92,2.21,3.13,2.19,0,2.19v0c0,.22.34.34,1.09.34a11.56,11.56,0,0,1,2.35.22c2.43.48,3.31,2.75,3.61,5.83h3.79V7.11"/><path class="cls-23" d="M35.87,84.23c.67-3.33,1.26-9.78,1.34-10.66s0-1.64-.15-1.67c-.53,7.48-2.3,9.61-3.59,11.41a26,26,0,0,1,2,2.18,2.91,2.91,0,0,0,.44-1.26"/><path class="cls-24" d="M37.05,71.9c-.17,0-.34.44-.51,1.67-.5,4.77-1.76,6-4.28,7l-.37.13,1.58,2.61c1.29-1.8,3.06-3.93,3.59-11.41h0"/><path class="cls-25" d="M15.25,83a10,10,0,0,1-4.41-2.46,18.55,18.55,0,0,1-3.47,3.52c-1.61,1.27-3.53,1.39-6.11,1.4h0c0,.22.42.33,1.34.33,2.19,0,4.2-.33,6.22-.33,3.28,0,7.14.22,10.5.33s6.05.33,12.27.33c2.47,0,3.4-.09,3.84-.63a26,26,0,0,0-2-2.18c-2.58.83-13.9,1.14-18.22-.32"/><path class="cls-26" d="M31.89,80.7a26.09,26.09,0,0,1-7.78,1c-3.28,0-5.54-.23-7-1-2.19-1.11-2.61-3.11-2.78-8.12-.08-2.33,0-15.22,0-19V43.78a1.27,1.27,0,0,1,.08-.64l-.66-2,.62-2.33a3.26,3.26,0,0,1,0-.64v-31c0-.53,0-.78.15-.9l.08-.06-.68-1.91a2.92,2.92,0,0,0-.59.19,2.65,2.65,0,0,0-.56.36,11.57,11.57,0,0,0-1.92,2.32V80.53A10,10,0,0,0,15.25,83c4.32,1.47,15.64,1.15,18.22.32L31.89,80.7"/><path class="cls-27" d="M6.83,3.43C4.92,2.21,3.13,2.19,0,2.19v0c0,.22.34.34,1.09.34a11.56,11.56,0,0,1,2.35.22C6.22,3.33,7,6.22,7.14,10c.17,3.56.17,6.67.17,24V53.56c0,9.89-.09,15.56-.17,19.89C7,81.79,6,84.46,3.11,85a6.4,6.4,0,0,1-1.26.11c-.34,0-.59.11-.59.33,2.58,0,4.5-.13,6.11-1.4a18.55,18.55,0,0,0,3.47-3.52V7.11a17.45,17.45,0,0,0-4-3.68"/><path class="cls-28" d="M30.48,41.41c1.61-1.41,3.21-3.52,3.21-5.07-.17,0-.34.44-.42.66-.59,1.34-2.36,1.56-5,1.78C26.29,39,16,39,14.87,39c-.3,0-.43,0-.47-.25l-.62,2.33c1.44,0,14-.09,16.7.32"/><path class="cls-29" d="M13.78,41.09l.66,2.06c.07-.12.22-.14.51-.14,1.43,0,9.75.22,12,.55,3,.45,4.7,2.22,5,4a8.91,8.91,0,0,1,.16,2c0,1,0,1.45.26,1.45.27-3.23-.15-7.09-1.95-9.6-2.72-.41-15.26-.32-16.7-.32"/><path class="cls-30" d="M10.84,7.11a8,8,0,0,1,2.48-2.68C14.53,3.89,17,4,20.11,4c1.44,0,10.11.08,12,.62.91-.76,3-3,3.09-3.74a.08.08,0,0,0-.06,0c-.16,0-.42.22-.84.44a16.55,16.55,0,0,1-4.2.67c-1.93.11-18.65.11-19.23.11-5.3-.33-7.56-.33-9.5-.33C.39,1.78,0,2,0,2.19c3.13,0,4.92,0,6.83,1.24a17.45,17.45,0,0,1,4,3.68"/><path class="cls-31" d="M32.08,4.65C30.22,4.11,21.55,4,20.1,4a35.42,35.42,0,0,0-6.19.21l.68,1.91a.72.72,0,0,1,.28,0c.92,0,10.08.22,11.51.34,4.2.44,6.47,1.44,6.89,4.33.16,1.22.16,1.55.25,2.33.08,1.11.17,1.45.33,1.45.06-3.76,0-7.21-1.77-9.91"/><path class="cls-1" d="M82.75,86.07c-3.51,0-6.94-.16-10.58-.32-3.81-.17-7.74-.35-11.94-.35-1,0-2.43.08-4,.16s-3.16.17-4.27.17-1.3-.17-1.3-.27.21-.28.54-.28a8.28,8.28,0,0,0,2.53-.34c1.87-.56,2.21-3.88,2.55-7.09l0-.06c.42-4.68.4-13.26.4-24.13V34c0-17.33,0-20.45-.14-24-.15-3.26-.69-6.67-3.73-7.28a11.64,11.64,0,0,0-2.35-.22c-.87,0-1-.15-1-.28s.35-.39,1.31-.39c2.83,0,6.57.19,8.36.29l1.13,0,1.58-.07c2.13-.1,5.71-.27,7.49-.27,1,0,1.31.24,1.31.39s-.31.28-.89.28a14,14,0,0,0-2.94.22C65,3.22,64.06,5.46,63.86,10c-.16,3.56-.18,6.68-.18,24V53.79c0,15.6.29,23.39,1.88,25.48,1.26,1.67,3.25,2.57,10.12,2.57,2.55,0,6.06,0,8.33-.89,2.5-1,4.06-2.52,4.57-7.38.18-1.33.35-1.62.46-1.62a0,0,0,0,1,0,0,3.57,3.57,0,0,1,.1,1.58v.14c-.45,4.73-.92,8.46-1.33,10.52-.33,1.63-1.32,1.85-5.09,1.85"/><path class="cls-2" d="M84.19,80.88,84,81l1.29,2.48.14,0,0,0-1.29-2.48"/><path class="cls-2" d="M60.23,7.11a19,19,0,0,1,3.48-3.52c1.79-1.4,3.94-1.4,6.93-1.4,0-.21-.46-.41-1.34-.41-2.52,0-8.65.33-9.07.33s-5.71-.33-9.49-.33c-1,0-1.31.2-1.34.41,3.13,0,4.92.2,6.94,1.5a16.42,16.42,0,0,1,3.89,3.42"/><path class="cls-32" d="M56.34,3.69c-2-1.3-3.81-1.49-6.94-1.5v0c0,.23.33.34,1.09.34a11.64,11.64,0,0,1,2.35.22c2.77.55,3.53,3.44,3.7,7.22.16,3.56.16,6.67.16,24V53.56c0,10.67,0,19.45-.42,24.12-.33,3.22-.67,6.55-2.52,7.11a8.87,8.87,0,0,1-2.52.33c-.33,0-.58.11-.58.33,2.57,0,4.49-.13,6.11-1.4a18.46,18.46,0,0,0,3.46-3.52V7.11a16.42,16.42,0,0,0-3.89-3.42"/><path class="cls-2" d="M87.87,84.23c.67-3.33,1.26-9.78,1.34-10.66s0-1.64-.16-1.67c-.52,7.49-2.29,9.76-3.58,11.56.77.75,1.29,1.3,1.84,1.93a2,2,0,0,0,.56-1.16"/><path class="cls-33" d="M64.64,83a10.06,10.06,0,0,1-4.41-2.46,18.46,18.46,0,0,1-3.46,3.52c-1.62,1.27-3.54,1.39-6.11,1.4h0c0,.22.42.33,1.34.33,2.18,0,6.22-.33,8.23-.33,8.15,0,15.29.66,22.52.66,2.62,0,3.91-.11,4.56-.73-.55-.63-1.07-1.18-1.84-1.94-2.58.84-16.5,1-20.83-.46"/><path class="cls-34" d="M89.06,71.9h0c-.17,0-.34.44-.51,1.67-.5,4.72-2,6.3-4.45,7.3l1.34,2.6h0c1.29-1.8,3.06-4.07,3.59-11.56"/><path class="cls-35" d="M84,80.9c-2.27.89-5.8.89-8.32.89-6.55,0-8.74-.78-10.08-2.56-1.51-2-1.85-9.11-1.85-25.44V34c0-17.33,0-20.44.17-24,.17-3.89.84-6.67,2.85-7.22a14,14,0,0,1,2.94-.22c.51,0,.93-.11.93-.34a0,0,0,0,0,0,0c-3,0-5.14,0-6.93,1.4a19,19,0,0,0-3.48,3.52V80.53A10.06,10.06,0,0,0,64.64,83c4.31,1.46,18.12,1.3,20.79.48l-1.34-2.6-.08,0"/><path class="cls-36" d="M56.52,9.75c0,.09,0,.17,0,.25.16,3.56.16,6.67.16,24V53.56c0,9.89-.08,15.56-.16,19.89,0,.56,0,1.09,0,1.6h3.74V9.76H56.52"/><path class="cls-37" d="M84.09,80.87l-.08,0c-2.27.89-5.8.89-8.32.89-6.55,0-8.74-.78-10.08-2.56-1.51-2-1.85-9.11-1.85-25.44V34c0-17.34,0-20.45.17-24q.06-1.38.21-2.55l-2.51-2a16.08,16.08,0,0,0-1.4,1.64V80.53A10.06,10.06,0,0,0,64.64,83c4.31,1.46,18.12,1.3,20.79.48l-1.34-2.6"/><path class="cls-38" d="M66.78,2.78a14,14,0,0,1,2.94-.22c.51,0,.93-.11.93-.34a0,0,0,0,0,0,0c-3,0-5.14,0-6.93,1.4-.42.33-.81.67-1.19,1l2.06.79a3.46,3.46,0,0,1,2.2-2.61"/><path class="cls-39" d="M89.06,71.9h0c-.17,0-.34.44-.51,1.67-.5,4.72-2,6.3-4.45,7.3l1.34,2.6h0c1.29-1.8,3.06-4.07,3.59-11.56"/><path class="cls-40" d="M87.87,84.23c.67-3.33,1.26-9.78,1.34-10.66s0-1.64-.16-1.67c-.52,7.49-2.29,9.76-3.58,11.56.77.75,1.29,1.3,1.84,1.93a2,2,0,0,0,.56-1.16"/><path class="cls-41" d="M60.23,80.53a18.46,18.46,0,0,1-3.46,3.52c-1.62,1.27-3.54,1.39-6.11,1.4h0c0,.22.42.33,1.34.33,2.18,0,6.22-.33,8.23-.33,1.4,0,2.77,0,4.12.05V82.89a9.63,9.63,0,0,1-4.12-2.36"/><path class="cls-42" d="M87.31,85.39c-.55-.63-1.07-1.18-1.84-1.93-2.58.83-16.5,1-20.83-.47l-.29-.1v2.62c6.49.16,12.41.61,18.4.61,2.62,0,3.91-.11,4.56-.73"/><path class="cls-43" d="M60.23,7.11a19,19,0,0,1,3.48-3.52c1.79-1.4,3.94-1.4,6.93-1.4,0-.21-.46-.41-1.34-.41-2.52,0-8.65.33-9.07.33s-5.71-.33-9.49-.33c-1,0-1.31.2-1.34.41,3.13,0,4.92.2,6.94,1.5a16.42,16.42,0,0,1,3.89,3.42"/><path class="cls-44" d="M60.23,7.11a16.42,16.42,0,0,0-3.89-3.42c-2-1.3-3.81-1.49-6.94-1.5v0c0,.23.33.34,1.09.34a11.64,11.64,0,0,1,2.35.22c2,.4,3,2,3.39,4.33.05.25.09.5.12.77h3.88V7.11"/><path class="cls-45" d="M60.23,7.11V80.53l4.22-5.22c-.54-3.92-.69-10.69-.69-21.52V34c0-17.33,0-20.44.17-24a24.28,24.28,0,0,1,.27-2.91h-4l0,0"/><path class="cls-46" d="M56.34,3.69c-2-1.3-3.81-1.49-6.94-1.5v0c0,.23.33.34,1.09.34a11.64,11.64,0,0,1,2.35.22c2.77.55,3.53,3.44,3.7,7.22.16,3.56.16,6.67.16,24V53.56c0,10.67,0,19.45-.42,24.12-.33,3.22-.67,6.55-2.52,7.11a8.87,8.87,0,0,1-2.52.33c-.33,0-.58.11-.58.33,2.57,0,4.49-.13,6.11-1.4a18.46,18.46,0,0,0,3.46-3.52V7.11a16.42,16.42,0,0,0-3.89-3.42"/><path class="cls-1" d="M119,5.5c-1.69,0-4.81.34-5.48.79-1,.57-1,.81-1,1.82,0,1.75,0,4.72-.06,8.17,0,4.86-.07,10.92-.07,15.95V46c0,12.28.11,22.08.19,24.11,0,1.67.28,7.22.94,8.48,2,4,8.73,4.47,14.32,4.47a25.16,25.16,0,0,0,20-10.35,31.58,31.58,0,0,0,5-11.6,64.24,64.24,0,0,0,1.72-15,54.19,54.19,0,0,0-2.74-17.53,40.45,40.45,0,0,0-5.33-10.52,28.16,28.16,0,0,0-13-10.41c-5-1.9-10.14-2.16-14.53-2.16m8.56,81.23c-2.95,0-6.88-.22-11.67-.66-1.85-.17-3.5-.34-4.71-.46s-2-.21-2.26-.21l-1.41.07c-1.89.1-5,.26-6.83.26-1.24,0-1.3-.32-1.3-.39s.17-.27.63-.27a9.47,9.47,0,0,0,2.53-.23c1.77-.47,2.14-4.17,2.45-7.16.42-4.67.4-13.25.4-24.12V34c0-17.32,0-20.44-.15-24-.14-3.26-.69-6.67-3.72-7.28a11.8,11.8,0,0,0-2.35-.22c-.87,0-1-.15-1-.28s.34-.39,1.3-.39c3.64,0,6.29.16,7.88.26.74,0,1.27.08,1.62.08s1,0,2-.08c2.18-.09,5.82-.26,9.31-.26h3.5a50,50,0,0,1,15.06,1.87,29.72,29.72,0,0,1,7.92,3.79,29.24,29.24,0,0,1,7.17,7c3.71,5.1,8.14,14.14,8.14,28.18a60.5,60.5,0,0,1-2.77,18.44A46.55,46.55,0,0,1,153,74,30,30,0,0,1,127.6,86.74"/><path class="cls-2" d="M109,72.9h3.76v-.22H109v.22"/><path class="cls-47" d="M154,14.45C144,.78,128.61,1.78,120.3,1.78c-5,0-10.34.33-11.34.33s-4.2-.33-9.5-.33c-.95,0-1.3.2-1.34.41,3.13,0,4.93.2,6.94,1.5A16.72,16.72,0,0,1,109,7.11a11.56,11.56,0,0,1,3.26-2.57c1.74-.78,3.39-.8,6.45-.8,6.63,0,39.64-2.93,39.64,40.54,0,42-29.89,40.66-31,40.66-.7,0-14.56.15-18.34-4.41a15.16,15.16,0,0,1-4.57,4.26c-1.18.66-2.83.67-5,.67.08.14.36.33,1.31.33,2.52,0,7.81-.33,8.23-.33s3.28.33,7,.66,8.06.67,11.67.67c14.29,0,21.85-7.78,25.46-12.78,4.7-6.56,9.07-17.34,9.07-31.34,0-13.22-3.95-22.45-8.15-28.22"/><path class="cls-48" d="M105.06,3.69c-2-1.3-3.81-1.49-6.94-1.5v0c0,.23.33.34,1.09.34a11.64,11.64,0,0,1,2.35.22c2.78.55,3.53,3.44,3.7,7.22.17,3.56.17,6.67.17,24V53.56c0,10.67,0,19.45-.42,24.12-.34,3.22-.76,6.66-2.44,7.11a9.77,9.77,0,0,1-2.52.22c-.59,0-.67.22-.67.34a.2.2,0,0,0,0,.11c2.15,0,3.8,0,5-.67A15.16,15.16,0,0,0,109,80.53V7.11a16.72,16.72,0,0,0-3.9-3.42"/><path class="cls-49" d="M130.46,4.33a63.89,63.89,0,0,0-11.79-.59c-3,0-4.64,0-6.35.75l1.18,1.89.08,0c.67-.44,3.78-.77,5.46-.77a46.15,46.15,0,0,1,11.42,1.17c5.78,1.48,11.23,4.67,16,11.38,3.44,4.78,8.06,13.89,8.06,28,0,10.22-2.35,20.89-6.72,26.56a25,25,0,0,1-20,10.33c-10.5,0-13.19-2.33-14.28-4.44-.43-.8-.67-3.37-.81-5.78H109v7.74c3.78,4.56,17.64,4.41,18.34,4.41,1.12,0,31,1.37,31-40.66,0-30.17-15.91-38-27.86-39.95"/><path class="cls-50" d="M112.55,13.45c0-2.23,0-4.09,0-5.34,0-1,.08-1.21.93-1.73l-1.18-1.89-.1,0A11.56,11.56,0,0,0,109,7.11V72.79h3.81c-.06-1-.09-1.88-.12-2.67-.08-2.11-.17-12.33-.17-24.11V32.23c0-6,0-13.45.07-18.78"/><path class="cls-51" d="M105.1,8.07c.08.61.13,1.26.16,1.93.17,3.56.17,6.67.17,24V53.56c0,10.67,0,19.45-.42,24.12,0,.32-.07.65-.11,1h4V8.07H105.1"/><path class="cls-52" d="M127.86,83c-10.5,0-13.19-2.33-14.28-4.44-.43-.8-.67-3.37-.81-5.78-.06-1-.09-1.88-.12-2.67-.08-2.11-.17-12.33-.17-24.11V32.23c0-6,0-13.45.07-18.78,0-2.23,0-4.09,0-5.34V7.8l-1.71-2.42A12.06,12.06,0,0,0,109,7.11V80.53c3.78,4.56,17.64,4.41,18.34,4.41a28.55,28.55,0,0,0,9-1.35V81.47A23.92,23.92,0,0,1,127.86,83"/><path class="cls-53" d="M109,7.11a16.72,16.72,0,0,0-3.9-3.42c-2-1.3-3.81-1.49-6.94-1.5v0c0,.23.33.34,1.09.34a11.64,11.64,0,0,1,2.35.22c2.28.45,3.19,2.48,3.54,5.28H109v-1"/><path class="cls-54" d="M130.46,4.33c-.77-.12-1.53-.23-2.27-.31V6.25c.76.13,1.52.29,2.27.48,5.78,1.48,11.23,4.67,16,11.38a41.39,41.39,0,0,1,6,12.82h4.52c-4-19.28-16.66-25-26.61-26.6"/><path class="cls-55" d="M162.13,42.67c0-13.22-3.95-22.44-8.15-28.22A29,29,0,0,0,137.85,3.34v3c10.22,3.94,20.47,13.76,20.47,38,0,.25,0,.5,0,.76h3.78c0-.78,0-1.57,0-2.37"/><path class="cls-56" d="M109,2.11c-1.1,0-4.2-.33-9.5-.33-.95,0-1.3.2-1.34.41,3.13,0,4.93.2,6.94,1.5A16.72,16.72,0,0,1,109,7.11a11.56,11.56,0,0,1,3.26-2.57,12.71,12.71,0,0,1,5.47-.79V1.8c-4.13.08-7.9.31-8.73.31"/><path class="cls-57" d="M109,80.53a15.16,15.16,0,0,1-4.57,4.26c-1.18.66-2.83.67-5,.67.08.14.36.33,1.31.33,2.52,0,7.81-.33,8.23-.33s3.28.33,7,.66c3.44.32,7.64.64,11.15.67V84.94c-1.89,0-14.54-.09-18.13-4.41"/><path class="cls-58" d="M105.06,3.69c-2-1.3-3.81-1.49-6.94-1.5v0c0,.23.33.34,1.09.34a11.64,11.64,0,0,1,2.35.22c2.78.55,3.53,3.44,3.7,7.22.17,3.56.17,6.67.17,24V53.56c0,10.67,0,19.45-.42,24.12-.34,3.22-.76,6.66-2.44,7.11a9.77,9.77,0,0,1-2.52.22c-.59,0-.67.22-.67.34a.2.2,0,0,0,0,.11c2.15,0,3.8,0,5-.67A15.16,15.16,0,0,0,109,80.53V7.11a16.72,16.72,0,0,0-3.9-3.42"/><path class="cls-59" d="M112.77,72.79c-.06-1-.09-1.88-.12-2.67-.08-2.11-.17-12.33-.17-24.11V32.23c0-6,0-13.45.07-18.78,0-2.23,0-4.09,0-5.34a3.7,3.7,0,0,1,.06-.82l-2.15-1.61A11.21,11.21,0,0,0,109,7.11V78.43h4.55a24.62,24.62,0,0,1-.74-5.64"/><path class="cls-1" d="M194.22,5.28a19.23,19.23,0,0,0-5.64.67l0,0c-.4.21-.66.35-.66,1.14V44.34a1.12,1.12,0,0,0,.44.94c1.26,1,4.63,1.56,9,1.56a9,9,0,0,0,6.32-2.12c3.22-2.92,5.15-9.34,5.15-17.16,0-6.81-1.35-12.47-3.91-16.36a12.33,12.33,0,0,0-10.67-5.92m65.37,11.1c-.18,0-.3.49-.6,1.68l0,.15-7.48,30.34c-.05.22-.08.35,0,.44a.16.16,0,0,0,.16.07h16.55c.15,0,.23,0,.26-.09s0-.17,0-.3,0-.08,0-.12l-8.06-30.34c-.36-1.3-.51-1.83-.7-1.83M230.7,85.77c-6,0-8.45-.86-10.25-2.14-3.33-2.35-6.08-7.17-10.26-14.45-.34-.61-.7-1.23-1.07-1.87-1.93-3.35-4-7.05-5.75-10.31-1.44-2.62-2.69-4.89-3.49-6.25-.23-.41-.41-.58-.62-.58L188.17,50c-.28,0-.29,0-.29.5v3.11c0,10.87,0,19.45.42,24.12.22,2.85.81,6.69,3.31,7.17a11.61,11.61,0,0,0,2.49.24h1.3c.46,0,.63.14.63.28s-.09.38-1.81.38c-3.05,0-6.69-.19-8.44-.28l-1.05,0-1.41.07c-1.88.1-5,.26-6.83.26-1.23,0-1.3-.32-1.3-.38s.17-.28.63-.28a9.47,9.47,0,0,0,2.53-.23c1.64-.43,2.09-3.49,2.47-7.15.42-4.68.42-13.26.42-24.13V34c0-17.33,0-20.45-.17-24-.14-3.26-.7-6.67-3.73-7.27A11,11,0,0,0,175,2.5c-.86,0-1-.15-1-.28s.34-.38,1.31-.38c3,0,6.35.17,8.15.27l1.34.06c.34,0,1.44,0,2.84-.11,2.29-.09,5.44-.22,7.07-.22,5.05,0,10.82.57,15.35,4.87a21.74,21.74,0,0,1,5.78,15.07c0,9-3.23,17.18-10.15,25.63a.08.08,0,0,0,0,.08l2.47,4.18c5.76,9.78,10.73,18.22,15,24.27s7.56,8.79,10.28,8.79c3.16-.1,4.7-3.68,6.76-11.14l19-68.68C260,1.6,260.59.06,261,.06s.76.79,2,4.74c.29,1,1.45,5,3.06,10.55,4.4,15.2,12.59,43.5,16.35,55.9.19.64.38,1.25.55,1.82,2.51,8.26,3,10,6.28,11.44a9.51,9.51,0,0,0,3.71.56c.6,0,.88.09.88.28,0,0,0,.39-1.22.39h-3.92c-3.71,0-6.88-.08-9.69-.24-2.23-.11-2.48-.54-2.48-.72s.17-.25.4-.4l.17-.11c.54-.42,1.08-1.18.52-3.29L269.7,53.32c-.09-.35-.11-.37-.38-.37H250.5c-.19,0-.2,0-.37.59l-5.13,20c-1.16,4.63-1.79,8.08-1.05,9.85a2.19,2.19,0,0,0,1.42,1.33,8.2,8.2,0,0,0,2.53.34c.59,0,.8.15.8.28s-.23.38-1.22.38c-1.85,0-3.5-.11-4.82-.21-.89-.06-1.66-.12-2.24-.12-.84,0-3.5.14-5.64.25l-1.75.08c-.82,0-1.61,0-2.33,0"/><path class="cls-60" d="M243.26,84.44A9.39,9.39,0,0,1,240.71,81a22.55,22.55,0,0,1-4.19,3.21,7.9,7.9,0,0,1-3.63,1.12,15.4,15.4,0,0,1-12.21-6.61c-5.63-7.89-14.26-23-17.47-28.93-.75,0-2.46-1-3.81-1.24s-7.42-.16-12.4-.7l.94,2.24h0c0-.09.08-.09.23-.09l11.09.22c.17,0,.34.11.59.56,1.76,3,5.71,10.44,9.24,16.55,4.79,8.34,7.73,13.78,11.34,16.34,2.18,1.55,5.21,2.33,12.6,2.11,2.27-.11,6.3-.33,7.39-.33,1.43,0,4,.33,7.06.33,1,0,1.26-.33,1.26-.44h0c-2.28.12-4.1.19-5.48-.9"/><path class="cls-1" d="M188.31,84.16a14.5,14.5,0,0,1-3.58-3.63,18.25,18.25,0,0,1-3.4,3.55c-1.8,1.42-3.13,1.3-6.18,1.3,0,.13.19.41,1.34.41,2.53,0,7.82-.33,8.24-.33s5.46.33,9.49.33c1.76,0,1.85-.33,1.85-.45-4.46,0-5.84.14-7.76-1.18"/><path class="cls-61" d="M180.88,3.42c-2-1.29-3.85-1.24-7-1.23v0c0,.22.34.34,1.09.34a11.56,11.56,0,0,1,2.35.22c2.78.55,3.53,3.44,3.7,7.22.17,3.56.17,6.67.17,24V53.56c0,10.67,0,19.45-.42,24.12-.34,3.22-.76,6.66-2.44,7.11a9.73,9.73,0,0,1-2.52.22c-.59,0-.67.22-.67.33v0c3,0,4.38.12,6.18-1.3a18.25,18.25,0,0,0,3.4-3.55V7.11a16.33,16.33,0,0,0-3.85-3.69"/><path class="cls-62" d="M195.4,85a16,16,0,0,1-3.78-.22c-2.36-.45-3-3.89-3.28-7.11-.42-4.67-.42-13.45-.42-24.12V50.45a1.44,1.44,0,0,1,0-.35L187,47.86l.92-3.45V7.11a1.29,1.29,0,0,1,.13-.68l-.75-2a8.48,8.48,0,0,0-2.57,2.68V80.53a14.34,14.34,0,0,0,3.58,3.63c1.92,1.32,3.3,1.18,7.76,1.18,0-.11-.09-.33-.67-.33"/><path class="cls-63" d="M194.5,3.56c-2.52,0-5.89-.06-7.2.87l.75,2a1.13,1.13,0,0,1,.54-.43,19.53,19.53,0,0,1,5.63-.67c9,0,14.53,8.34,14.53,22.23,0,8.44-2.18,14.45-5.12,17.11a8.89,8.89,0,0,1-6.3,2.11c-3.7,0-7.56-.44-9-1.55a1.05,1.05,0,0,1-.42-.82L187,47.86c5,.53,11.12.46,12.4.7s3.06,1.24,3.81,1.24c.15,0,.57-1.87.89-2.52a39,39,0,0,0,8.2-24c0-11.22-6.18-19.69-17.8-19.69"/><path class="cls-64" d="M210,6.67c-4.45-4.23-10.08-4.89-15.37-4.89-2.6,0-9,.33-9.91.33-.59,0-5.38-.33-9.5-.33-.95,0-1.3.2-1.34.41,3.14,0,5-.06,7,1.23a16.33,16.33,0,0,1,3.85,3.69,8.7,8.7,0,0,1,2.57-2.68c1.31-.93,4.68-.87,7.2-.87,11.62,0,17.8,8.47,17.8,19.69a39,39,0,0,1-8.2,24l1.55.17c7.56-9.22,10.16-17.45,10.16-25.67A21.72,21.72,0,0,0,210,6.67"/><path class="cls-1" d="M285.5,83.93a15.79,15.79,0,0,1-4.13-3.48,8.09,8.09,0,0,1-3,3.8,2.8,2.8,0,0,1-2,.51v0c0,.22.25.67,2.52.78,5.8.33,11.76.22,13.61.22,1,0,1.22-.28,1.26-.41-3.19,0-6.24-.2-8.35-1.45"/><path class="cls-2" d="M292.93,85a9.67,9.67,0,0,1-3.7-.55c-3.44-1.56-3.78-3.34-6.8-13.23C277.3,54.34,264.11,8.45,263,4.78,261.76.67,261.34,0,261,0h0l-.31,7.51,20.7,72.95h0a16,16,0,0,0,4.13,3.47c2.11,1.25,5.16,1.44,8.35,1.45v0c0-.22-.25-.33-.92-.33"/><path class="cls-65" d="M260.67,7.51a9.22,9.22,0,0,0-1,1.51l-.13,7.41c.16,0,.33.56.67,1.79l8.06,30.34a1.55,1.55,0,0,1,.08.35L270,51l-.44,2a.89.89,0,0,1,.11.3L277.55,81c.59,2.22-.08,2.89-.5,3.22s-.56.33-.59.53a2.8,2.8,0,0,0,2-.51,8.12,8.12,0,0,0,3-3.79L260.67,7.51"/><path class="cls-66" d="M251.51,48.56,259,18.22c.29-1.15.44-1.76.59-1.79L259.71,9c-.22.43-14.26,53.92-19,72a9.39,9.39,0,0,0,2.55,3.43c1.38,1.09,3.2,1,5.48.9,0-.22-.34-.33-.84-.33a8.35,8.35,0,0,1-2.52-.33c-2.35-.78-2.1-4.11-.34-11.11l5.13-20a2,2,0,0,1,.19-.52l-.44-2,1.56-2c0-.06,0-.18,0-.4"/><path class="cls-1" d="M249.92,51l.44,2a.21.21,0,0,1,.14,0h18.82a.45.45,0,0,1,.23,0l.44-2H249.92"/><path class="cls-2" d="M268.39,48.91c0,.07-.08.1-.25.1H251.6a.14.14,0,0,1-.12,0l-1.56,2H270l-1.6-2.1"/><path class="cls-67" d="M259.07,4.89,240,73.81c-1.9,6.85-3.42,10.76-6.65,10.87-2.52,0-5.72-2.45-10.25-8.78-4.87-6.89-10.59-16.78-17.48-28.45l-1.54-.17c-.32.65-.74,2.52-.89,2.52,3.21,6,11.84,21,17.47,28.93a15.38,15.38,0,0,0,12.21,6.6,7.88,7.88,0,0,0,3.63-1.11A22.55,22.55,0,0,0,240.71,81c.47-1.81,1-4,1.68-6.4C248.12,52.76,259.51,9.41,259.71,9a9.22,9.22,0,0,1,1-1.51L261,0c-.34.05-.85.89-1.91,4.89"/><path class="cls-68" d="M181,9.45c0,.11,0,.37,0,.58.17,3.56.17,6.64.17,24V53.56c0,9.4,0,17.34-.29,22.34h3.82V9.45H181"/><path class="cls-69" d="M187.92,50.45a1.44,1.44,0,0,1,0-.35L187,47.86l.92-3.45V15.22h-3.19V76.57h3.52c-.33-4.88-.33-13.13-.33-23V50.45"/><path class="cls-70" d="M262.42,13.69l-2.65,3a15.87,15.87,0,0,1,.48,1.57l8.06,30.34a1.55,1.55,0,0,1,.08.35L270,51l-.44,2a.89.89,0,0,1,.11.3L277.55,81l0,.1,3.57-1.43-18.73-66"/><path class="cls-71" d="M282.43,71.23C277.3,54.34,264.11,8.45,263,4.78,261.76.67,261.34,0,261,0h0l-.31,7.51L281,79l3.44-1.4c-.54-1.63-1.15-3.7-2-6.35"/><path class="cls-72" d="M241,79.84l2.73.26a48.39,48.39,0,0,1,1.3-6.53l5.13-20a2,2,0,0,1,.19-.52l-.44-2,1.56-2c0-.06,0-.18,0-.4L259,18.22c.29-1.15.44-1.76.59-1.79L259.71,9c-.22.42-13.69,51.73-18.7,70.82"/><path class="cls-73" d="M240,73.81c-.56,2-1.08,3.75-1.62,5.22l2.55,1c.42-1.6.9-3.44,1.44-5.47C248.12,52.76,259.51,9.41,259.71,9h0l-1.6-.67c-3.86,14-18.08,65.4-18.1,65.47"/><path class="cls-74" d="M212.3,23.25c0-9.81-4.72-17.52-13.67-19.3V6.1c5.85,2.16,9.51,8.84,10.05,18.83h3.58c0-.55,0-1.11,0-1.68"/><path class="cls-75" d="M187,47.86l.94,2.24c0-.09.08-.09.23-.09l11.09.22h0l.08-1.68c-1.36-.23-7.42-.16-12.35-.69"/><path class="cls-76" d="M215.81,21.78A21.72,21.72,0,0,0,210,6.67c-3.36-3.19-7.4-4.35-11.46-4.73v2c9,1.76,13.75,9.49,13.75,19.32,0,.48,0,.94,0,1.41l3.45-.47c.05-.8.08-1.61.08-2.41"/><path class="cls-77" d="M197.33,46.78c-3.7,0-7.56-.44-9-1.55a1.05,1.05,0,0,1-.42-.82L187,47.86c5,.53,11.12.46,12.4.7l.12,0,.14-2a12.62,12.62,0,0,1-2.33.19"/><path class="cls-78" d="M195.4,85a16,16,0,0,1-3.78-.22c-2.36-.45-3-3.89-3.28-7.11-.11-1.26-.2-2.83-.26-4.64l-3.35,1.34v6.15a14.5,14.5,0,0,0,3.58,3.63c1.92,1.32,3.3,1.18,7.76,1.18,0-.11-.09-.33-.67-.33"/><path class="cls-79" d="M204.1,47.28l1.54.17a55.53,55.53,0,0,0,3.55-4.79l-1.45-1a42.59,42.59,0,0,1-3.65,5.65"/><path class="cls-80" d="M184.73,2.11c-.59,0-5.38-.33-9.5-.33-.95,0-1.3.2-1.34.41,3.14,0,5-.06,7,1.23a16.33,16.33,0,0,1,3.85,3.69,8.7,8.7,0,0,1,2.57-2.68,8.68,8.68,0,0,1,4.15-.84l.26-1.75c-2.86.1-6.32.27-7,.27"/><path class="cls-81" d="M184.73,7.11a16.33,16.33,0,0,0-3.85-3.69c-2-1.29-3.85-1.24-7-1.23v0c0,.22.34.34,1.09.34a11.67,11.67,0,0,1,2.36.22c2.61.52,3.43,3.13,3.66,6.6h3.73V7.11"/><path class="cls-82" d="M186.77,4.83a8.43,8.43,0,0,0-2,2.28V21.57l3.19-1.48V7.27l-1.15-2.44"/><path class="cls-83" d="M188.31,84.16a14.5,14.5,0,0,1-3.58-3.63,18.25,18.25,0,0,1-3.4,3.55c-1.8,1.42-3.13,1.3-6.18,1.3,0,.13.19.41,1.34.41,2.53,0,7.82-.33,8.24-.33s5.46.33,9.49.33c1.76,0,1.85-.33,1.85-.45-4.46,0-5.84.14-7.76-1.18"/><path class="cls-84" d="M205.64,47.45l-1.54-.17c-.32.64-.74,2.52-.89,2.52,1.82,3.37,5.4,9.72,9.19,16l2.12-3.37c-2.72-4.53-5.67-9.57-8.88-15"/><path class="cls-85" d="M268.39,48.91c0,.07-.08.1-.25.1H251.6a.14.14,0,0,1-.12,0l-1.57,2H270l-1.6-2.1"/><path class="cls-86" d="M292.93,85a9.67,9.67,0,0,1-3.7-.55c-2.52-1.14-3.38-2.4-4.84-6.88L281,79l.42,1.48h0a15.79,15.79,0,0,0,4.13,3.48c2.11,1.25,5.16,1.44,8.35,1.45v0c0-.22-.25-.33-.92-.33"/><path class="cls-87" d="M240.71,81a9.47,9.47,0,0,0,2.55,3.43c1.38,1.09,3.2,1,5.48.9,0-.22-.34-.33-.84-.33a8.35,8.35,0,0,1-2.52-.33c-1.45-.48-1.91-1.92-1.64-4.59L241,79.84c-.1.41-.21.8-.3,1.17"/><path class="cls-88" d="M248.74,85.34c-2.28.12-4.1.19-5.48-.9A9.39,9.39,0,0,1,240.71,81a22.55,22.55,0,0,1-4.19,3.21,7.81,7.81,0,0,1-3.62,1.11v.46H233c2.27-.11,6.3-.33,7.39-.33,1.43,0,4,.33,7.06.33,1,0,1.26-.33,1.26-.45h0"/><path class="cls-89" d="M232.89,85.33a15.38,15.38,0,0,1-12.21-6.6c-1.9-2.66-4.15-6.16-6.41-9.84l-2.85,2.52c3.49,6.06,6,10.15,9,12.27,2.17,1.54,5.17,2.32,12.47,2.11v-.46h0"/><path class="cls-90" d="M223.12,75.9c-1.64-2.32-3.38-5-5.22-7.93L215.59,71c1.81,2.88,3.56,5.56,5.09,7.7a15.38,15.38,0,0,0,12.21,6.6h0v-.68c-2.44-.28-5.52-2.8-9.78-8.75"/><path class="cls-91" d="M260.67,7.51,261,0c-.33.05-.84.89-1.9,4.89l-.7,2.55,1.7.93a9.64,9.64,0,0,1,.6-.86"/><path class="cls-92" d="M285.5,83.93a15.79,15.79,0,0,1-4.13-3.48,8.09,8.09,0,0,1-3,3.8,2.8,2.8,0,0,1-2,.51v0c0,.22.25.67,2.52.78,5.8.33,11.76.22,13.61.22,1,0,1.22-.28,1.26-.41-3.19,0-6.24-.2-8.35-1.45"/><path class="cls-93" d="M260.67,7.51a9.22,9.22,0,0,0-1,1.51l-.13,7.41c.06,0,.12.07.19.22l2.65-3-1.75-6.18"/><path class="cls-94" d="M249.92,51l.44,2a.21.21,0,0,1,.14,0h18.82a.45.45,0,0,1,.23,0l.44-2H249.92"/><path class="cls-95" d="M180.88,3.42c-2-1.29-3.85-1.24-7-1.23v0c0,.22.34.34,1.09.34a11.56,11.56,0,0,1,2.35.22c2.78.55,3.53,3.44,3.7,7.22.17,3.56.17,6.67.17,24V53.56c0,10.67,0,19.45-.42,24.12-.34,3.22-.76,6.66-2.44,7.11a9.73,9.73,0,0,1-2.52.22c-.59,0-.67.22-.67.33v0c3,0,4.38.12,6.18-1.3a18.25,18.25,0,0,0,3.4-3.55V7.11a16.33,16.33,0,0,0-3.85-3.69"/><path class="cls-96" d="M195.4,85a16,16,0,0,1-3.78-.22c-2.36-.45-3-3.89-3.28-7.11-.42-4.67-.42-13.45-.42-24.12V50.45a1.44,1.44,0,0,1,0-.35L187,47.86l.92-3.45V7.11a1.29,1.29,0,0,1,.13-.68l-.75-2a8.48,8.48,0,0,0-2.57,2.68V80.53a14.34,14.34,0,0,0,3.58,3.63c1.92,1.32,3.3,1.18,7.76,1.18,0-.11-.09-.33-.67-.33"/><path class="cls-97" d="M268.39,48.91c0,.07-.08.1-.25.1H251.6a.14.14,0,0,1-.12,0l-1.57,2H270l-1.6-2.1"/><path class="cls-98" d="M292.93,85a9.67,9.67,0,0,1-3.7-.55c-3.44-1.56-3.78-3.34-6.8-13.23C277.3,54.34,264.11,8.45,263,4.78,261.76.67,261.34,0,261,0h0l-.31,7.51,20.7,72.95h0a16,16,0,0,0,4.13,3.47c2.11,1.25,5.16,1.44,8.35,1.45v0c0-.22-.25-.33-.92-.33"/><path class="cls-99" d="M251.51,48.56,259,18.22c.29-1.15.44-1.76.59-1.79L259.71,9c-.22.43-14.26,53.92-19,72a9.39,9.39,0,0,0,2.55,3.43c1.38,1.09,3.2,1,5.48.9,0-.22-.34-.33-.84-.33a8.35,8.35,0,0,1-2.52-.33c-2.35-.78-2.1-4.11-.34-11.11l5.13-20a2,2,0,0,1,.19-.52l-.44-2,1.56-2c0-.06,0-.18,0-.4"/><path class="cls-100" d="M259.07,4.89,240,73.81c-1.9,6.85-3.42,10.76-6.65,10.87a3.71,3.71,0,0,1-.47,0v.68a7.81,7.81,0,0,0,3.62-1.11A22.55,22.55,0,0,0,240.71,81l1.68-6.4C248.12,52.76,259.51,9.41,259.71,9a9.22,9.22,0,0,1,1-1.51L261,0c-.34.05-.85.9-1.91,4.89"/><path class="cls-101" d="M260.67,7.51a9.22,9.22,0,0,0-1,1.51l-.13,7.41c.16,0,.33.56.67,1.79l8.06,30.34a1.55,1.55,0,0,1,.08.35L270,51l-.44,2a.89.89,0,0,1,.11.3L277.55,81c.59,2.22-.08,2.89-.5,3.22s-.56.33-.59.53a2.8,2.8,0,0,0,2-.51,8.12,8.12,0,0,0,3-3.79L260.67,7.51"/><path class="cls-1" d="M333.92,87.29c-11.5,0-20.79-4-27.61-11.88A39.43,39.43,0,0,1,299.4,62.6a59,59,0,0,1-3.07-18.82,58.21,58.21,0,0,1,4.2-22.58,36.21,36.21,0,0,1,9.81-13.93c7.53-6.2,15.88-7,22.32-7A55.1,55.1,0,0,1,345.5,2.17a35.13,35.13,0,0,0,7.24,1.22c.48,0,.54.42.54.83s0,.69-.1,1.16a121.57,121.57,0,0,0-.49,13c0,2.21-.34,2.27-.37,2.27s-.23-.74-.3-1.94c0-.11,0-.23,0-.35a18,18,0,0,0-.74-4.45c-.84-2.52-3.42-4.89-7.26-6.69a34.06,34.06,0,0,0-14.11-2.9c-5.7,0-11.82.89-18,7.35-5.21,5.47-8.33,16-8.33,28.26a59.7,59.7,0,0,0,3.35,19.88,40,40,0,0,0,5.57,10.95c6.13,7.9,13.54,11.9,22,11.9,2,0,7.11-.27,10.25-2.78a2.59,2.59,0,0,0,1-2.27V57.45c0-8.75-.15-11.81-3.54-12.39L341.8,45a16.3,16.3,0,0,0-2.26-.17c-.87,0-1.05-.15-1.05-.28s.35-.39,1.31-.39c2.83,0,6.57.19,8.36.28l1.13.06,1.41-.07c1.88-.1,5-.27,6.82-.27,1,0,1.31.24,1.31.39s-.31.28-.89.28a8.07,8.07,0,0,0-2.19.22c-2.21.61-2.68,3.86-2.83,7.28s-.18,6.91-.18,11.56V77c0,4.33-.07,4.53-1.05,5.29-5.24,3.68-12.61,5-17.77,5"/><path class="cls-2" d="M345.43,4.39a1.15,1.15,0,0,0,.17.06V2.19l-.17,0V4.39"/><path class="cls-2" d="M345.68,46a22.7,22.7,0,0,1,3.7,3.47,18.34,18.34,0,0,1,3.48-3.52c1.76-1.39,3.1-1.4,6-1.4-.05-.21-.47-.41-1.34-.41-2.52,0-7.82.33-8.24.33s-5.71-.33-9.49-.33c-1,0-1.31.2-1.34.41,3.19,0,5.27-.05,7.22,1.45"/><path class="cls-2" d="M352.36,20.66c.16-.07.38-.58.38-2.32a120.35,120.35,0,0,1,.59-14.12,1.43,1.43,0,0,0-.09-.56,33.1,33.1,0,0,1-3.12,3.14c1.83,4.8,2.21,7.53,2.24,13.86"/><path class="cls-102" d="M345.68,46c-1.95-1.5-4-1.45-7.22-1.45v0c0,.22.33.34,1.09.34a19.78,19.78,0,0,1,2.69.22c3.27.55,3.52,3.33,3.52,12.33V77.57a2.73,2.73,0,0,1-.32,1.43l3.94,1V49.45a22.7,22.7,0,0,0-3.7-3.47"/><path class="cls-103" d="M300.32,42c0,27.44,15.87,43.07,33.73,43.07,6.87,0,11.15-1.45,15.33-5l-3.94-1a3.42,3.42,0,0,1-.68.79c-2.78,2.22-7.23,2.78-10.25,2.78-7.73,0-15.37-3.34-22-11.89-2.94-3.78-8.91-15.12-8.91-30.79,0-13,3.45-23.11,8.32-28.22,6.38-6.67,12.69-7.34,18-7.34,10.83,0,19.65,4.56,21.34,9.56a19.82,19.82,0,0,1,.75,4.78c.09,1.55.17,2,.34,2h0c0-6.33-.41-9.06-2.24-13.86C345.76,4,340.07,2.21,331,2.21c-21.59,0-30.66,17.35-30.66,39.8"/><path class="cls-104" d="M358.87,44.53c-2.91,0-4.25,0-6,1.4a18.34,18.34,0,0,0-3.48,3.52v30.6h0a20.19,20.19,0,0,1-5.11,3.27l1.06,2.16a24.89,24.89,0,0,0,6.4-3.14,2.19,2.19,0,0,0,.79-.88c.27-.63.3-1.74.3-4.45V63.9c0-4.67,0-8,.17-11.56.17-3.89.76-6.67,2.77-7.22a7.63,7.63,0,0,1,2.19-.23c.5,0,.92-.11.92-.33v0"/><path class="cls-105" d="M332.66.22c-6.47,0-14.79.78-22.35,7s-14,18.78-14,36.56c0,13.89,4.87,25.78,10,31.67,9.33,10.78,21.26,11.89,27.64,11.89a37.38,37.38,0,0,0,11.41-1.86l-1.06-2.16a25.12,25.12,0,0,1-10.22,1.76c-17.85,0-33.73-15.63-33.73-43.07,0-22.45,9.07-39.8,30.66-39.8a40.07,40.07,0,0,1,14.53,2.27V2.11A55.46,55.46,0,0,0,332.66.22"/><path class="cls-106" d="M350.12,6.8a33.1,33.1,0,0,0,3.12-3.14.5.5,0,0,0-.5-.33,35.26,35.26,0,0,1-7.23-1.22V4.48a25.46,25.46,0,0,1,4.61,2.32h0"/><path class="cls-107" d="M345.51,49.74a72.05,72.05,0,0,1,.25,7.71V77.57a2.73,2.73,0,0,1-.32,1.43l3.94,1V49.74h-3.87"/><path class="cls-108" d="M352.82,63.9c0-4.67,0-8,.17-11.56a20.64,20.64,0,0,1,.6-4.58l-1.79-.94a17.23,17.23,0,0,0-2.42,2.63v30l3.3,1.49a28,28,0,0,0,.14-3.88V63.9"/><path class="cls-109" d="M358.87,44.53c-2.91,0-4.25,0-6,1.4-.37.29-.72.59-1.06.89l1.79.94a3.41,3.41,0,0,1,2.17-2.64A8,8,0,0,1,358,44.9c.5,0,.92-.12.92-.34v0"/><path class="cls-110" d="M349.38,49.45a22.7,22.7,0,0,0-3.7-3.47c-1.95-1.5-4-1.45-7.22-1.45v0c0,.22.33.34,1.09.34a19.78,19.78,0,0,1,2.69.22c2,.34,2.91,1.56,3.27,4.62h3.87v-.29"/><path class="cls-111" d="M345.68,46a22.7,22.7,0,0,1,3.7,3.47,18.34,18.34,0,0,1,3.48-3.52c1.76-1.39,3.1-1.4,6-1.4-.05-.21-.47-.41-1.34-.41-2.52,0-7.82.33-8.24.33s-5.71-.33-9.49-.33c-1,0-1.31.2-1.34.41,3.19,0,5.27-.05,7.22,1.45"/><path class="cls-112" d="M334.05,85.08c6.87,0,11.15-1.45,15.33-5l-3.94-1a3.42,3.42,0,0,1-.68.79c-2.78,2.22-7.23,2.78-10.25,2.78H334v2.52h.08"/><path class="cls-113" d="M334,85.08V82.56c-7.54-.15-15-3.53-21.47-11.88a26.21,26.21,0,0,1-2.24-3.49l-2.38,3.15c6.3,9.56,15.87,14.71,26.09,14.74"/><path class="cls-114" d="M306.28,75.45a33.69,33.69,0,0,0,21.26,11.46V84.37c-10.14-2.25-19-9.81-23.68-21.88h-4.54a39.17,39.17,0,0,0,7,13"/><path class="cls-115" d="M350.12,6.8a26.65,26.65,0,0,0-8.26-3.45v3c4.9,1.8,8.37,4.59,9.37,7.54a19.82,19.82,0,0,1,.75,4.78c.09,1.56.17,2,.34,2h0c0-6.33-.41-9.06-2.24-13.86"/><path class="cls-116" d="M353.24,3.66a.5.5,0,0,0-.5-.33,35.26,35.26,0,0,1-7.23-1.22V4.48a25.46,25.46,0,0,1,4.61,2.32c1.83,4.8,2.21,7.53,2.24,13.86.16-.07.38-.58.38-2.32a120.35,120.35,0,0,1,.59-14.12,1.43,1.43,0,0,0-.09-.56"/><path class="cls-117" d="M345.68,46c-1.95-1.5-4-1.45-7.22-1.45v0c0,.22.33.34,1.09.34a19.78,19.78,0,0,1,2.69.22c3.27.55,3.52,3.33,3.52,12.33V77.57a2.73,2.73,0,0,1-.32,1.43l3.94,1V49.45a22.7,22.7,0,0,0-3.7-3.47"/><path class="cls-118" d="M358.87,44.53c-2.91,0-4.25,0-6,1.4a18.34,18.34,0,0,0-3.48,3.52V80h3.39c0-.69.05-1.65.05-3V63.9c0-4.67,0-8,.17-11.56.17-3.89.76-6.67,2.77-7.22A8,8,0,0,1,358,44.9c.5,0,.92-.12.92-.34v0"/><path class="cls-1" d="M401.21,4a20.93,20.93,0,0,0-17.56,9.17,34.71,34.71,0,0,0-5.15,11.44,63.06,63.06,0,0,0-1.86,16,71.14,71.14,0,0,0,2.07,17.59,45.18,45.18,0,0,0,5.71,13.44c4.87,7.47,11.67,11.59,19.14,11.59a19.44,19.44,0,0,0,14.46-7,31.41,31.41,0,0,0,6.21-11.61A66.68,66.68,0,0,0,426.79,45c0-12.51-2.7-23.07-7.8-30.55C414.35,7.68,408,3.94,401.21,3.94m.08,83.35a27.83,27.83,0,0,1-14.78-4A31.1,31.1,0,0,1,376.4,73c-4.87-7.77-7.66-18.44-7.66-29.3a55.79,55.79,0,0,1,7.85-28.44C380.84,8.41,388.67.28,401.8.28a29.81,29.81,0,0,1,23.56,11.11c6.16,7.5,9.41,18.05,9.41,30.5s-3.25,23.7-9.16,32a32.66,32.66,0,0,1-10.56,9.77,27.53,27.53,0,0,1-13.76,3.6"/><path class="cls-119" d="M403.66,85.36c-16.06,0-30.85-13.84-30.85-42.52,0-27,13.55-40.84,28.37-40.84S431,14.34,431,45.09c0,31.36-19.3,40.27-27.29,40.27M401.8.22c-23.19,0-33.1,25.45-33.1,43.45,0,20,9.57,43.67,32.59,43.67,20.25,0,33.52-20.55,33.52-45.45C434.81,16,420.7.22,401.8.22"/><path class="cls-120" d="M403.56,83.12c-15.12,0-26.88-16.67-26.88-42.56C376.68,16.22,387.18,4,401.21,4c13.27,0,25.54,14.34,25.54,41,0,32.33-15.63,38.11-23.19,38.11M401.18,2c-14.82,0-28.37,13.83-28.37,40.84,0,28.7,14.79,42.52,30.85,42.52,8,0,27.29-8.91,27.29-40.27C431,14.34,415.91,2,401.18,2"/><path class="cls-121" d="M403.66,85.36c-8.87,0-17.35-4.22-23.16-12.82l-2.38,3c5.27,7,12.87,11.77,23.17,11.77a28,28,0,0,0,7.23-.93V84.54a16.81,16.81,0,0,1-4.86.82"/><path class="cls-122" d="M401.8.22c-.75,0-1.47,0-2.19.08V2.05c.52,0,1.05,0,1.57,0C411,2,421,7.49,426.5,20.26h4.25c-5.5-12.77-16.13-20-28.95-20"/><path class="cls-123" d="M423.58,23.92h4.33C422.78,8.56,411.94,2,401.25,2h0a2.11,2.11,0,0,0,1.89,2.1c8.46.9,16.27,7.68,20.44,19.82"/><path class="cls-124" d="M380.56,63.82,377.7,67.6c5.6,11.83,15.37,17.66,25.69,17.76V83.12c-9.81-.08-18.19-7.2-22.83-19.3"/></g></g></svg>